<svg xmlns="http://www.w3.org/2000/svg" viewBox="0 0 500 500"><g id="freepik--Floor--inject-99"><path id="freepik--floor--inject-99" d="M87.6,255.27c-89.36,51.59-89.35,135.23,0,186.82s234.24,51.59,323.59,0,89.35-135.23,0-186.82S177,203.68,87.6,255.27Z" style="fill:#f5f5f5"></path></g><g id="freepik--flying-coins--inject-99"><g id="freepik--flying-coins--inject-99"><path d="M426.6,205.31a10.85,10.85,0,1,0,6.76,13.77A10.85,10.85,0,0,0,426.6,205.31ZM420.23,224a8.87,8.87,0,1,1,11.26-5.53A8.87,8.87,0,0,1,420.23,224Z" style="fill:#f5f5f5"></path><path d="M426.39,218.82a3.23,3.23,0,0,0,.08-.9,2.78,2.78,0,0,0-.17-.78,3,3,0,0,0-.38-.67,4.14,4.14,0,0,0-.53-.58,7.72,7.72,0,0,0-.61-.53l-.66-.47a11.5,11.5,0,0,1-1.25-.92,2.85,2.85,0,0,1-.61-.72,1.06,1.06,0,0,1-.11-.82,1,1,0,0,1,.15-.35.78.78,0,0,1,.29-.25,1.09,1.09,0,0,1,.44-.13,2.74,2.74,0,0,1,.61,0,4.14,4.14,0,0,1,1.37.53,4.24,4.24,0,0,1,.4.31l.34.3.3.25a.71.71,0,0,0,.25.14.51.51,0,0,0,.32,0,.84.84,0,0,0,.32-.19l.76-.65a6.07,6.07,0,0,0-.8-1.07,5,5,0,0,0-1.25-1l.49-1.44-.85-.29a.56.56,0,0,0-.46,0,.55.55,0,0,0-.27.33l-.28.81a4.66,4.66,0,0,0-1.61-.18,3.41,3.41,0,0,0-1.29.37,2.65,2.65,0,0,0-.93.79,3,3,0,0,0-.52,1.09,3.44,3.44,0,0,0-.05,1.45,3,3,0,0,0,.48,1.12,4,4,0,0,0,.82.88c.32.26.64.5,1,.72l1.26.87a2.7,2.7,0,0,1,.61.68,1,1,0,0,1,.11.79,1.18,1.18,0,0,1-1.54,1,3.44,3.44,0,0,1-1.38-.52,3.54,3.54,0,0,1-.54-.44l-.42-.44a4,4,0,0,0-.35-.36.86.86,0,0,0-.34-.22.57.57,0,0,0-.34,0,.55.55,0,0,0-.29.13l-1,.82a5.76,5.76,0,0,0,1.1,1.31,7.21,7.21,0,0,0,1.51,1.06l-.52,1.52.85.29a.53.53,0,0,0,.46,0,.5.5,0,0,0,.27-.32l.31-.91a4.57,4.57,0,0,0,1.61.14,3.07,3.07,0,0,0,1.31-.42,2.79,2.79,0,0,0,1-.88A3.62,3.62,0,0,0,426.39,218.82Z" style="fill:#f5f5f5"></path><path d="M412.73,202.89c1.89-4.42,3.28-7.53,2-9.11s-4.6-1.89-10-4.77-6.77-5.32-7.32-6.53-2.48,4.27-1.22,7a8.48,8.48,0,0,0,6.45,4.76c-1.81.6-4.07-.09-5.2-.52s-1.41,2,1,4.56a11.35,11.35,0,0,0,5.07,2.68s-.46.66-3.61.62c-1.86,0-1.2,1.55.58,2.72a8,8,0,0,0,4.55,1.21,6.63,6.63,0,0,1-3,1.09c-1.27-.05.34,2.55,3,3.26s6.31.68,8.67,2.19l.45-1.32C411.93,209.91,410.84,207.3,412.73,202.89Z" style="fill:#f5f5f5"></path><path d="M439.05,211.87c1.2-4.65,2-8,4-8.44s4.8,1.32,10.85,2.36,8.6-.07,9.78-.7-.65,4.9-3.29,6.25a8.47,8.47,0,0,1-8-.18c1.06,1.58,3.28,2.42,4.44,2.77s-.13,2.47-3.62,3a11.5,11.5,0,0,1-5.65-1s0,.79,2.48,2.69c1.48,1.12,0,2-2.12,1.79a7.94,7.94,0,0,1-4.34-1.82,6.67,6.67,0,0,0,1.7,2.7c1,.73-1.83,1.81-4.35.75s-5.4-3.31-8.2-3.56l.45-1.32C435.38,217.92,437.84,216.52,439.05,211.87Z" style="fill:#f5f5f5"></path></g><g id="freepik--flying-coins--inject-99"><path d="M399.05,56.83a10.14,10.14,0,1,0,7.16,12.42A10.14,10.14,0,0,0,399.05,56.83Zm-4.79,17.79a8.29,8.29,0,1,1,10.16-5.85A8.28,8.28,0,0,1,394.26,74.62Z" style="fill:#f5f5f5"></path><path d="M399.69,69.44a2.72,2.72,0,0,0,0-.85,2.16,2.16,0,0,0-.21-.71,2.38,2.38,0,0,0-.39-.6,5.13,5.13,0,0,0-.53-.51,6.7,6.7,0,0,0-.6-.45l-.65-.41a10,10,0,0,1-1.21-.77,2.63,2.63,0,0,1-.62-.63,1.06,1.06,0,0,1-.16-.76.78.78,0,0,1,.13-.34.69.69,0,0,1,.25-.26,1.24,1.24,0,0,1,.4-.14,2.16,2.16,0,0,1,.57,0,3.9,3.9,0,0,1,1.31.41l.39.26.34.26.29.21a.89.89,0,0,0,.24.12.54.54,0,0,0,.31,0,.8.8,0,0,0,.29-.2l.66-.65a5.69,5.69,0,0,0-.81-1,5,5,0,0,0-1.23-.82l.37-1.37-.81-.22a.53.53,0,0,0-.43,0,.53.53,0,0,0-.23.32l-.21.78a4.13,4.13,0,0,0-1.51-.07,3.07,3.07,0,0,0-1.18.42,2.61,2.61,0,0,0-.82.8,2.65,2.65,0,0,0-.41,1,3,3,0,0,0,0,1.35,3.06,3.06,0,0,0,.51,1,3.77,3.77,0,0,0,.82.77c.31.22.63.42.95.61l1.23.73a2.72,2.72,0,0,1,.62.59,1,1,0,0,1,.14.73,1.1,1.1,0,0,1-1.38,1,3,3,0,0,1-1.31-.4,2.7,2.7,0,0,1-.54-.37l-.41-.38c-.13-.12-.24-.23-.35-.32a.9.9,0,0,0-.33-.18.58.58,0,0,0-.32,0,.55.55,0,0,0-.26.14l-.85.82a5.74,5.74,0,0,0,1.11,1.16,7.43,7.43,0,0,0,1.47.9L394,73l.81.22a.53.53,0,0,0,.43-.06.48.48,0,0,0,.23-.31l.24-.87a4.29,4.29,0,0,0,1.51,0,3.06,3.06,0,0,0,1.19-.47,2.65,2.65,0,0,0,.84-.89A3.23,3.23,0,0,0,399.69,69.44Z" style="fill:#f5f5f5"></path><path d="M386,55.43c1.49-4.23,2.59-7.22,1.33-8.62s-4.42-1.48-9.65-3.82-6.64-4.55-7.22-5.64-2.05,4.14-.71,6.55a7.91,7.91,0,0,0,6.3,4,8,8,0,0,1-4.88-.16c-1.08-.33-1.19,2,1.26,4.19a10.69,10.69,0,0,0,4.89,2.19s-.39.64-3.33.79c-1.73.1-1,1.53.71,2.5a7.38,7.38,0,0,0,4.32.85,6.22,6.22,0,0,1-2.73,1.2c-1.18,0,.48,2.36,3,2.86s5.92.24,8.22,1.5l.34-1.26C385.66,62,384.48,59.66,386,55.43Z" style="fill:#f5f5f5"></path><path d="M411.07,62.18c.83-4.41,1.38-7.55,3.18-8.12s4.55.93,10.26,1.53,8-.6,9.07-1.25-.3,4.61-2.67,6a7.93,7.93,0,0,1-7.48.33,7.94,7.94,0,0,0,4.3,2.31c1.11.26,0,2.32-3.18,3a10.67,10.67,0,0,1-5.33-.56s0,.74,2.47,2.35c1.46.95.12,1.83-1.86,1.81a7.43,7.43,0,0,1-4.16-1.43,6.19,6.19,0,0,0,1.76,2.4c1,.63-1.6,1.8-4,1s-5.24-2.76-7.86-2.82l.34-1.26C408,68,410.23,66.59,411.07,62.18Z" style="fill:#f5f5f5"></path></g><g id="freepik--flying-coins--inject-99"><path d="M88,168.33a14.64,14.64,0,1,0,9.5,18.4A14.63,14.63,0,0,0,88,168.33Zm-8.09,25.34a12,12,0,1,1,15-7.76A11.95,11.95,0,0,1,79.87,193.67Z" style="fill:#f5f5f5"></path><path d="M88,186.56a3.73,3.73,0,0,0,.09-1.22,3.24,3.24,0,0,0-.26-1,4.05,4.05,0,0,0-.52-.9,6.6,6.6,0,0,0-.73-.77,7.9,7.9,0,0,0-.84-.69c-.3-.22-.6-.43-.9-.62a14.17,14.17,0,0,1-1.71-1.21,3.91,3.91,0,0,1-.85-1,1.51,1.51,0,0,1-.17-1.11,1.48,1.48,0,0,1,.2-.48,1.16,1.16,0,0,1,.38-.35,1.79,1.79,0,0,1,.59-.17,2.92,2.92,0,0,1,.82,0,5.58,5.58,0,0,1,1.87.69,3.78,3.78,0,0,1,.54.4c.17.13.33.26.47.39l.41.33a1.33,1.33,0,0,0,.34.19.74.74,0,0,0,.44,0,1.18,1.18,0,0,0,.43-.26l1-.91a9.47,9.47,0,0,0-1.11-1.41,7,7,0,0,0-1.72-1.26l.62-2-1.15-.37a.74.74,0,0,0-.62.05.68.68,0,0,0-.36.44L85,174.52a6,6,0,0,0-2.17-.2,4.5,4.5,0,0,0-1.74.53,3.83,3.83,0,0,0-1.24,1.09,4,4,0,0,0-.66,1.49,4.45,4.45,0,0,0,0,1.95,4.26,4.26,0,0,0,.67,1.5A5.18,5.18,0,0,0,80.92,182c.44.34.88.66,1.34,1L84,184.13a3.49,3.49,0,0,1,.84.9,1.37,1.37,0,0,1,.17,1.06,1.59,1.59,0,0,1-2.06,1.33,4.39,4.39,0,0,1-1.87-.66,4.5,4.5,0,0,1-.74-.57l-.58-.58c-.17-.19-.33-.35-.48-.49a1.19,1.19,0,0,0-.46-.28.84.84,0,0,0-.47,0A.72.72,0,0,0,78,185l-1.27,1.12a7.67,7.67,0,0,0,1.52,1.75,10.14,10.14,0,0,0,2,1.39l-.65,2.06,1.15.36a.74.74,0,0,0,.62,0,.72.72,0,0,0,.36-.45l.39-1.24a5.92,5.92,0,0,0,2.18.15,4.37,4.37,0,0,0,1.76-.59,4,4,0,0,0,1.27-1.23A4.86,4.86,0,0,0,88,186.56Z" style="fill:#f5f5f5"></path><path d="M69.2,165.43c2.43-6,4.21-10.24,2.48-12.34s-6.26-2.43-13.65-6.16-9.27-7-10-8.62-3.24,5.83-1.46,9.41A11.42,11.42,0,0,0,55.35,154c-2.42.85-5.49,0-7-.57s-1.85,2.79,1.52,6.13A15.33,15.33,0,0,0,56.75,163s-.59.9-4.85.93c-2.5,0-1.57,2.13.86,3.65a10.66,10.66,0,0,0,6.16,1.51s-2.3,1.58-4,1.55.53,3.44,4.11,4.32,8.52.75,11.75,2.72l.57-1.79C68.31,174.93,66.76,171.43,69.2,165.43Z" style="fill:#f5f5f5"></path><path d="M104.93,176.85c1.5-6.31,2.51-10.79,5.13-11.5s6.52,1.65,14.7,2.89,11.61-.32,13.18-1.2-.75,6.63-4.27,8.51a11.44,11.44,0,0,1-10.81,0c1.48,2.1,4.49,3.16,6.06,3.61s-.11,3.34-4.8,4.11a15.35,15.35,0,0,1-7.64-1.17s0,1.08,3.41,3.57c2,1.47,0,2.64-2.82,2.47a10.69,10.69,0,0,1-5.9-2.34s1,2.63,2.38,3.59-2.43,2.49-5.86,1.14-7.37-4.33-11.15-4.59l.57-1.8C100.15,185.1,103.44,183.15,104.93,176.85Z" style="fill:#f5f5f5"></path></g><g id="freepik--flying-coins--inject-99"><path d="M417.79,123.73a16.31,16.31,0,1,0,18.65,13.58A16.3,16.3,0,0,0,417.79,123.73Zm4.6,29.29a13.34,13.34,0,1,1,11.11-15.25A13.33,13.33,0,0,1,422.39,153Z" style="fill:#ebebeb"></path><path d="M427,141.84a4.31,4.31,0,0,0-.52-1.25,3.83,3.83,0,0,0-.77-.91,3.9,3.9,0,0,0-1-.63,6.67,6.67,0,0,0-1.11-.41,11.25,11.25,0,0,0-1.18-.27l-1.21-.17a15.74,15.74,0,0,1-2.3-.35,4.14,4.14,0,0,1-1.32-.52,1.6,1.6,0,0,1-.72-1,1.45,1.45,0,0,1-.05-.58,1.38,1.38,0,0,1,.21-.54,1.85,1.85,0,0,1,.49-.47,3.68,3.68,0,0,1,.84-.38,6.38,6.38,0,0,1,2.21-.25,6,6,0,0,1,.74.13l.66.15.57.13a1.3,1.3,0,0,0,.43,0,.79.79,0,0,0,.45-.21,1.36,1.36,0,0,0,.29-.48l.56-1.4a10.15,10.15,0,0,0-1.81-.85,7.36,7.36,0,0,0-2.35-.4l-.36-2.26-1.32.2a.88.88,0,0,0-.6.36.83.83,0,0,0-.14.62l.2,1.29a6.59,6.59,0,0,0-2.26.88,4.88,4.88,0,0,0-1.46,1.39,4.25,4.25,0,0,0-.6,3.52,5,5,0,0,0,.93,2,4.87,4.87,0,0,0,1.42,1.16,6.44,6.44,0,0,0,1.71.6c.61.11,1.21.21,1.81.28l2.28.27a4,4,0,0,1,1.29.47,1.5,1.5,0,0,1,.69,1,1.77,1.77,0,0,1-1.37,2.36,4.85,4.85,0,0,1-2.2.27,4.48,4.48,0,0,1-1-.2c-.31-.09-.6-.19-.86-.29l-.72-.24a1.44,1.44,0,0,0-.61-.05,1,1,0,0,0-.47.21,1,1,0,0,0-.29.38l-.7,1.76a8.68,8.68,0,0,0,2.38,1,11.15,11.15,0,0,0,2.75.35l.38,2.38,1.32-.2a.86.86,0,0,0,.6-.37.8.8,0,0,0,.14-.61l-.23-1.44a6.84,6.84,0,0,0,2.24-.93,5,5,0,0,0,1.46-1.48,4.46,4.46,0,0,0,.65-1.85A5.56,5.56,0,0,0,427,141.84Z" style="fill:#ebebeb"></path><path d="M397.65,130.22c-.57-7.2-.91-12.31-3.69-13.54s-7.45.71-16.68.69S364.55,115,363,113.8s-.31,7.43,3.24,10.1a12.76,12.76,0,0,0,11.91,1.82c-2,2.06-5.47,2.72-7.28,2.95s-.45,3.69,4.58,5.34c4,1.31,8.62,0,8.62,0s-.14,1.19-4.37,3.34c-2.48,1.27-.5,2.91,2.68,3.21a11.93,11.93,0,0,0,6.9-1.57s-1.51,2.72-3.23,3.55,2.25,3.15,6.26,2.24,8.85-3.51,13.06-3.16l-.32-2.07C401.52,140.12,398.23,137.41,397.65,130.22Z" style="fill:#ebebeb"></path><path d="M439,123.73c-1.65-7-2.89-12-.63-14s7.31-1.61,16.09-4.47,11.4-6.12,12.52-7.77,2.57,7,0,10.6a12.74,12.74,0,0,1-10.78,5.39c2.52,1.35,6,.91,7.84.57s1.56,3.38-2.73,6.49c-3.38,2.46-8.2,2.66-8.2,2.66s.5,1.09,5.18,1.85c2.76.44,1.37,2.6-1.56,3.87a11.93,11.93,0,0,1-7.05.61s2.27,2.14,4.16,2.4-1.18,3.68-5.27,4.05-9.51-.63-13.4,1l-.33-2.07C438.31,134.35,440.61,130.76,439,123.73Z" style="fill:#ebebeb"></path></g><g id="freepik--flying-coins--inject-99"><path d="M79.34,63.05a11.54,11.54,0,1,0,14.51,7.46A11.54,11.54,0,0,0,79.34,63.05Zm6.4,20a9.43,9.43,0,1,1,6.11-11.86A9.43,9.43,0,0,1,85.74,83Z" style="fill:#ebebeb"></path><path d="M87.73,74.71a3.26,3.26,0,0,0-.5-.82,3,3,0,0,0-.64-.55,2.81,2.81,0,0,0-.75-.33,4.42,4.42,0,0,0-.82-.17c-.28,0-.57,0-.86-.06l-.86,0a11.36,11.36,0,0,1-1.65,0,2.94,2.94,0,0,1-1-.22,1.14,1.14,0,0,1-.61-.63,1.18,1.18,0,0,1-.1-.4.93.93,0,0,1,.09-.4,1.37,1.37,0,0,1,.29-.38,2.91,2.91,0,0,1,.55-.36A4.74,4.74,0,0,1,82.4,70a3.09,3.09,0,0,1,.53,0l.49,0,.41,0a1.26,1.26,0,0,0,.3,0,.58.58,0,0,0,.29-.2,1,1,0,0,0,.16-.36l.23-1a6.83,6.83,0,0,0-1.36-.4,5.2,5.2,0,0,0-1.68,0l-.5-1.54-.9.29a.6.6,0,0,0-.41.76l.28.88a4.51,4.51,0,0,0-1.48.86,3.58,3.58,0,0,0-.88,1.14,2.94,2.94,0,0,0-.29,1.26,3.18,3.18,0,0,0,.25,1.26,3.65,3.65,0,0,0,.87,1.27,3.28,3.28,0,0,0,1.12.65,4.53,4.53,0,0,0,1.26.24c.44,0,.87,0,1.3,0L84,75a2.87,2.87,0,0,1,.95.18,1,1,0,0,1,.59.61,1.26,1.26,0,0,1-.7,1.8,3.54,3.54,0,0,1-1.51.43,3,3,0,0,1-.74,0c-.23,0-.44-.07-.63-.11l-.53-.09a1,1,0,0,0-.43,0,.72.72,0,0,0-.31.2.63.63,0,0,0-.16.3l-.3,1.3a6.29,6.29,0,0,0,1.77.43,8,8,0,0,0,2,0l.52,1.62.91-.29a.59.59,0,0,0,.38-.32.52.52,0,0,0,0-.44l-.31-1a4.82,4.82,0,0,0,1.47-.9,3.44,3.44,0,0,0,.85-1.19,3.17,3.17,0,0,0,.26-1.36A4.08,4.08,0,0,0,87.73,74.71Z" style="fill:#ebebeb"></path><path d="M66,69.77c-1.18-5-2-8.5-4-9.06S56.78,62,50.32,63s-9.15-.25-10.39-.93.59,5.22,3.37,6.7a9,9,0,0,0,8.52,0c-1.16,1.66-3.53,2.5-4.77,2.86s.09,2.63,3.79,3.23a12.1,12.1,0,0,0,6-.92s0,.84-2.68,2.81c-1.61,1.16,0,2.08,2.22,2a8.41,8.41,0,0,0,4.65-1.85,7.1,7.1,0,0,1-1.87,2.83c-1.11.77,1.91,2,4.62.89s5.81-3.41,8.79-3.62l-.46-1.42C69.74,76.28,67.15,74.74,66,69.77Z" style="fill:#ebebeb"></path><path d="M94.13,60.75c-1.92-4.73-3.33-8.07-2-9.73s4.93-1.92,10.76-4.87,7.3-5.52,7.91-6.8,2.55,4.6,1.15,7.42a9,9,0,0,1-6.94,4.93c1.9.68,4.32,0,5.54-.45s1.46,2.2-1.2,4.84a12.15,12.15,0,0,1-5.45,2.74s.47.71,3.83.73c2,0,1.24,1.68-.68,2.88a8.44,8.44,0,0,1-4.86,1.2,7.16,7.16,0,0,0,3.17,1.22c1.35,0-.42,2.7-3.24,3.41s-6.72.59-9.26,2.15L92.44,69C94.84,68.24,96.05,65.48,94.13,60.75Z" style="fill:#ebebeb"></path></g></g><g id="freepik--Shadows--inject-99"><polygon id="freepik--Shadow--inject-99" points="378 316.34 222.65 226.75 247.6 212.34 402.95 301.93 378 316.34" style="fill:#e0e0e0"></polygon><polygon id="freepik--shadow--inject-99" points="401.07 341.41 410.31 336.07 389.14 321.69 409.07 317.56 408.41 315.33 421.42 310.44 436.71 320.82 444.19 316.51 461.28 352.97 401.07 341.41" style="fill:#e0e0e0"></polygon><path id="freepik--shadow--inject-99" d="M135.09,433.18l-13.78-2.39c-.5.26-1,.53-1.6.79l-2,.9-4.28-11.68-25.25-3.92-.82-8.59.06-2.91L70.6,400l4.55-2.18c7.29-3.5,16.55-5.43,26.09-5.43,11.57,0,22.43,2.7,30.58,7.6a33.28,33.28,0,0,1,6.23,4.76h1.17V406c3.56,4,5.3,8.46,5,13-.29,5-2.95,9.73-7.7,13.68l-.56.47Z" style="fill:#e0e0e0"></path><path id="freepik--shadow--inject-99" d="M91.23,454.09c-11.57,0-22.44-2.7-30.59-7.6s-12.58-11.43-12.46-18.38,4.77-13.32,13.1-17.93c.82-.45,1.55-.83,2.24-1.15l.71-.33,15.63,5-.1,5.66.5,5.27,24.5,3.81,3.57,9.74.61-.35,19.26,3.34-3.31,2.77a33.41,33.41,0,0,1-5.36,3.62,46.23,46.23,0,0,1-6,2.76l-.65.24A64.34,64.34,0,0,1,91.23,454.09Z" style="fill:#e0e0e0"></path><ellipse id="freepik--shadow--inject-99" cx="405.67" cy="431.9" rx="45.94" ry="26.52" style="fill:#e0e0e0"></ellipse></g><g id="freepik--Plants--inject-99"><g id="freepik--plants--inject-99"><path d="M99.41,311.59c1.22-5.75,4.9-25.22,3-42.84C100,245.8,88.4,236.12,83.53,233c-4.38-2.79-8.77-3.84-11.75-2.82a8.83,8.83,0,0,0-5.85,5.61c-1.76,5.4,1,13.44,8.3,23.89a69.78,69.78,0,0,1,6.69,12.35c.36,0,.72,0,1.08,0a71.35,71.35,0,0,0-7-12.91c-7-10-9.8-18-8.17-23a7.77,7.77,0,0,1,5.22-5,6.6,6.6,0,0,1,2.15-.33,17.38,17.38,0,0,1,8.74,3c9.89,6.29,16.78,19.36,18.45,35,1.89,17.79-1.93,37.51-3.07,42.82h0l-.28,1.19-9.32,5.38.59.81,9.6-5.52.45-1.94Z" style="fill:#BA68C8"></path><path d="M93.66,296.39a7.77,7.77,0,0,1,1.21,1.31c2-25.15-6.9-51.23-17.63-62.83a.65.65,0,1,0-1,.89C86.64,247,95.25,272,93.66,296.39Z" style="fill:#BA68C8"></path><path d="M64.87,332.94c-1.46,0-3.59-1.56-5.52-3.07l-.51-.4a13.51,13.51,0,0,1-4.26-5.42,12.7,12.7,0,0,1-.75-7.71A28.4,28.4,0,0,1,55,312.4l1.28-3.74a9.16,9.16,0,0,0,.72-3.61c-.17-2.31-2.11-4.1-4.25-5.88s-4.73-4.39-4.54-7.81c.12-2.19,1.17-4.38,3.21-6.72.64-.74,1.34-1.44,2-2.13a31.94,31.94,0,0,0,2.87-3.17A7.13,7.13,0,0,0,58,274.87a7.48,7.48,0,0,0-.86-2.89c-.33-.7-.71-1.39-1.08-2.06a20.77,20.77,0,0,1-2-4.28c-.62-2.1-.59-5.19,1.54-6.95,1.32-1.09,3.23-1.48,5.83-1.18a13,13,0,0,1,5.12,2.09,26.38,26.38,0,0,1,5.8,5.51c2,2.39,4,4.64,6.68,5.89a20.58,20.58,0,0,0,3.85,1.21c.79.2,1.6.4,2.4.65,1.89.6,4.36,1.81,5.38,4.15s.33,4.63-.32,6.94c-.56,2.06-1.1,4-.59,5.84A11.29,11.29,0,0,0,93,294.55a16.92,16.92,0,0,1,3,3.77,8.15,8.15,0,0,1,.74,5.1,23.2,23.2,0,0,1-2.45,8.09,70.76,70.76,0,0,1-4.82,7.41l-.15.13c-3.94,2.28-23.57,13.63-23.79,13.74A1.63,1.63,0,0,1,64.87,332.94Zm-5-74.53a5.46,5.46,0,0,0-3.58,1c-1.75,1.45-1.75,4.09-1.21,5.9a20.08,20.08,0,0,0,1.87,4.07c.38.69.77,1.4,1.11,2.12a8.49,8.49,0,0,1,1,3.28,8.12,8.12,0,0,1-1.92,5.11,33,33,0,0,1-2.95,3.27c-.67.68-1.35,1.37-2,2.09-1.89,2.16-2.86,4.16-3,6.11-.16,3,2.15,5.3,4.19,7,1.85,1.54,4.39,3.65,4.61,6.58a10,10,0,0,1-.78,4l-1.28,3.75a29.06,29.06,0,0,0-1.11,3.8,11.78,11.78,0,0,0,.68,7.12,12.63,12.63,0,0,0,3.94,5l.54.41c2.78,2.18,4.51,3.13,5.14,2.82.42-.23,15.59-9,23.66-13.66a71.19,71.19,0,0,0,4.66-7.17,22.44,22.44,0,0,0,2.36-7.78,7.19,7.19,0,0,0-.63-4.5,16.28,16.28,0,0,0-2.85-3.55,12.18,12.18,0,0,1-3.49-5.18c-.58-2.12,0-4.28.6-6.37.62-2.24,1.21-4.36.37-6.28s-3.08-3.06-4.78-3.6c-.76-.24-1.56-.44-2.33-.63a21.89,21.89,0,0,1-4-1.27c-2.89-1.34-5-3.78-7-6.15a25.69,25.69,0,0,0-5.57-5.31,11.85,11.85,0,0,0-4.71-1.94A11.44,11.44,0,0,0,59.85,258.41Z" style="fill:#BA68C8"></path><path d="M79,324.81h0a.63.63,0,0,1-.57-.68c2.26-24.51-8-52.2-16-60.51a.62.62,0,0,1,0-.87.63.63,0,0,1,.88,0c8.17,8.47,18.59,36.63,16.3,61.49A.62.62,0,0,1,79,324.81Z" style="fill:#BA68C8"></path><path d="M76.58,295l-.18,0a83,83,0,0,0-17.68-3.77.63.63,0,0,1-.56-.68.6.6,0,0,1,.67-.56,84.39,84.39,0,0,1,18,3.85.61.61,0,0,1,.37.79A.63.63,0,0,1,76.58,295Z" style="fill:#BA68C8"></path></g></g><g id="freepik--Arrow--inject-99"><g id="freepik--arrow--inject-99"><polygon points="278.24 183.25 253.28 197.66 280.19 172.55 305.15 158.15 278.24 183.25" style="fill:#BA68C8"></polygon><polygon points="305.15 158.15 278.24 183.25 253.28 197.66 280.19 172.55 305.15 158.15" style="opacity:0.30000000000000004"></polygon><polygon points="275.29 177.13 253.28 197.66 172.88 30.14 197.83 15.74 275.29 177.13" style="fill:#BA68C8"></polygon><polygon points="348.36 247.99 323.4 262.39 350.31 237.29 375.27 222.88 348.36 247.99" style="fill:#BA68C8"></polygon><polygon points="375.27 222.88 348.36 247.99 323.4 262.39 350.31 237.29 375.27 222.88" style="opacity:0.30000000000000004"></polygon><polygon points="411.85 299.95 401.15 303.44 400.8 307.28 384.19 308.65 384.07 308.4 350.31 237.29 375.26 222.88 411.82 299.88 411.85 299.95" style="fill:#BA68C8"></polygon><polygon points="345.41 241.86 323.4 262.39 280.19 172.55 305.15 158.15 345.41 241.86" style="fill:#BA68C8"></polygon><polygon points="460.48 348.32 444.42 314.06 437.09 318.29 420.42 306.97 408.87 311.31 409.67 314 390.45 317.98 412.14 332.69 403.89 337.46 460.48 348.32" style="fill:#BA68C8"></polygon></g></g><g id="freepik--Clipboard--inject-99"><g id="freepik--clipboard--inject-99"><g id="freepik--Board--inject-99"><g id="freepik--Window--inject-99"><path d="M416.15,370.4l-152,87.88a6.3,6.3,0,0,1-5.69,0l-201-116a6.26,6.26,0,0,1-2.83-4.93v-.67a6.35,6.35,0,0,1,2.86-4.93l152.14-87.82a6.27,6.27,0,0,1,5.69,0l200.89,116a6.29,6.29,0,0,1,2.84,4.93v.66A6.3,6.3,0,0,1,416.15,370.4Z" style="fill:#BA68C8"></path><path d="M416.15,370.4l-152,87.88a6.3,6.3,0,0,1-5.69,0l-201-116a6.26,6.26,0,0,1-2.83-4.93v-.67a6.35,6.35,0,0,1,2.86-4.93l152.14-87.82a6.27,6.27,0,0,1,5.69,0l200.89,116a6.29,6.29,0,0,1,2.84,4.93v.66A6.3,6.3,0,0,1,416.15,370.4Z" style="opacity:0.25"></path><path d="M215.1,243.8c-2.16-1.25-4.42-.52-6.59.74l-150,86.58c-2.16,1.24-2.17,3.28,0,4.54L257.38,450.43h0a7.82,7.82,0,0,0,7.83,0l150-86.57a2.62,2.62,0,0,0,0-4.54h0Z" style="fill:#BA68C8"></path><path d="M416.17,359.88l-1-.56a2.62,2.62,0,0,1,0,4.54l-150,86.57a7.54,7.54,0,0,1-3.9,1.05h-.1V459a5.84,5.84,0,0,0,2.9-.69l152-87.88a6.3,6.3,0,0,0,2.86-4.93v-.66A6.21,6.21,0,0,0,416.17,359.88Z" style="opacity:0.25"></path></g></g><path id="freepik--shadow--inject-99" d="M228.39,255.59c-2.23-1.29-4.56-.54-6.79.76L79.86,338.17c-2.23,1.29-2.23,3.39,0,4.68l177.21,102.3h0a8.06,8.06,0,0,0,8.06,0l141.77-81.82a2.7,2.7,0,0,0,0-4.68l-2.6-1.51Z" style="opacity:0.25"></path><g id="freepik--Papet--inject-99"><path d="M262.28,444,403.5,362.44a2.71,2.71,0,0,0,1.21-2.1v-1.57a2.65,2.65,0,0,0-1.21-2.09l-179-103.35a2.69,2.69,0,0,0-2.41,0L80.84,334.86A2.68,2.68,0,0,0,79.63,337v1.58a2.68,2.68,0,0,0,1.21,2.09L259.87,444A2.69,2.69,0,0,0,262.28,444Z" style="fill:#fff"></path><path d="M80.59,335a2.57,2.57,0,0,0-.33.33l-.14.19a3.13,3.13,0,0,0-.35.65,3.74,3.74,0,0,0-.12.45,2.83,2.83,0,0,0,0,.29v1.57a2.67,2.67,0,0,0,1.21,2.1L259.86,444a2.31,2.31,0,0,0,1.21.29v-4.36a2.61,2.61,0,0,1-1.21-.29l-179-103.34C80.27,335.93,80.18,335.42,80.59,335Z" style="fill:#e0e0e0"></path><path d="M403.79,356.9c.35.37.26.85-.29,1.17L262.29,439.6a2.43,2.43,0,0,1-1.21.29v4.36a2.29,2.29,0,0,0,1.21-.29L403.5,362.43a2.6,2.6,0,0,0,1.2-2.08v-1.58A2.67,2.67,0,0,0,403.79,356.9Z" style="fill:#f0f0f0"></path><path d="M267.85,278.38l-43.38-25a2.69,2.69,0,0,0-2.41,0L80.84,334.86A2.68,2.68,0,0,0,79.63,337v1.58a2.68,2.68,0,0,0,1.21,2.09l39.6,22.86Z" style="fill:#BA68C8"></path><g style="opacity:0.6000000000000001"><path d="M267.85,278.38l-43.38-25a2.69,2.69,0,0,0-2.41,0L80.84,334.86A2.68,2.68,0,0,0,79.63,337v1.58a2.68,2.68,0,0,0,1.21,2.09l39.6,22.86Z" style="fill:#fff"></path></g><path d="M123.4,335a11.12,11.12,0,0,1,2.87-1.17,11,11,0,0,1,3-.29,12,12,0,0,1,3,.49,15.93,15.93,0,0,1,2.95,1.18c1.14.6,2.22,1.23,3.26,1.88a9.45,9.45,0,0,1,2.05,1.71,3.16,3.16,0,0,1,.86,1.71,2.38,2.38,0,0,1-.48,1.69,6.2,6.2,0,0,1-2,1.63l-4.8,2.77a1,1,0,0,1-.54.11,1.15,1.15,0,0,1-.57-.16l-14.21-8.2a.44.44,0,0,1-.26-.33.3.3,0,0,1,.18-.31Zm9.19,1.7a8.36,8.36,0,0,0-1.55-.62,7.49,7.49,0,0,0-1.64-.27,6.5,6.5,0,0,0-1.69.16,6.29,6.29,0,0,0-1.66.67l-2.55,1.47,9.89,5.72L136,342.3a3.21,3.21,0,0,0,1.1-.93,1.38,1.38,0,0,0,.26-.95,1.82,1.82,0,0,0-.47-.94,4.8,4.8,0,0,0-1.09-.9C134.81,337.92,133.73,337.3,132.59,336.7Z" style="fill:#fafafa"></path><path d="M153.11,332.45a.93.93,0,0,1,.53-.11,1.26,1.26,0,0,1,.57.15l1.56.9a.52.52,0,0,1,.27.33.3.3,0,0,1-.19.31l-8.36,4.83a1,1,0,0,1-.53.11,1.26,1.26,0,0,1-.57-.15l-14.21-8.21a.47.47,0,0,1-.27-.33.32.32,0,0,1,.19-.31l8.21-4.74a1,1,0,0,1,.54-.1,1.26,1.26,0,0,1,.57.15l1.56.9a.45.45,0,0,1,.26.33.29.29,0,0,1-.18.31l-6.15,3.55,3.49,2,5.73-3.31a1.08,1.08,0,0,1,.54-.11,1.27,1.27,0,0,1,.57.16l1.56.9a.45.45,0,0,1,.27.33.3.3,0,0,1-.19.31L143.15,334l3.65,2.11Z" style="fill:#fafafa"></path><path d="M159.24,332.08a1,1,0,0,1-.53.1,1.15,1.15,0,0,1-.57-.15l-14.21-8.2a.47.47,0,0,1-.27-.33.31.31,0,0,1,.19-.31l5.62-3.24a7.58,7.58,0,0,1,2.46-.93,9.4,9.4,0,0,1,2.4-.14,9.27,9.27,0,0,1,2.12.4,8.89,8.89,0,0,1,1.64.69,4.74,4.74,0,0,1,1,.77,2.84,2.84,0,0,1,.51.72,2.07,2.07,0,0,1,.16.6,1,1,0,0,1,0,.4,10.75,10.75,0,0,1,2.4.13,7.34,7.34,0,0,1,2.63,1,5.45,5.45,0,0,1,1.4,1.11,2.86,2.86,0,0,1,.7,1.31,1.9,1.9,0,0,1-.22,1.36,3.47,3.47,0,0,1-1.37,1.26Zm-3.62-10.56a3.18,3.18,0,0,0-1.72-.46,3.89,3.89,0,0,0-1.87.58l-3.37,1.95,3.38,2,3.37-1.94q1-.57,1-1.08C156.45,322.17,156.18,321.84,155.62,321.52Zm2.93,7.78,3.52-2c.7-.41,1-.8,1-1.19s-.31-.73-.87-1.06a3.77,3.77,0,0,0-1.86-.49,4,4,0,0,0-2.05.57l-3.52,2Z" style="fill:#fafafa"></path><path d="M165.08,310.93a1,1,0,0,1,.54-.11,1.15,1.15,0,0,1,.57.16l1.56.9a.45.45,0,0,1,.27.33.31.31,0,0,1-.19.31l-3.43,2,12.06,6.95a.47.47,0,0,1,.26.33.3.3,0,0,1-.19.31L175,323a1,1,0,0,1-.53.11,1.26,1.26,0,0,1-.57-.15l-12.06-7-3.42,2a1,1,0,0,1-.54.11,1.15,1.15,0,0,1-.57-.16l-1.56-.9a.47.47,0,0,1-.27-.33.32.32,0,0,1,.19-.31Z" style="fill:#fafafa"></path><path d="M124.22,361.3l-43.38-25c-.57-.33-.66-.84-.25-1.22a2.57,2.57,0,0,0-.33.33l-.14.19a3.13,3.13,0,0,0-.35.65,3.74,3.74,0,0,0-.12.45,2.83,2.83,0,0,0,0,.29v1.57a2.67,2.67,0,0,0,1.21,2.1l43.38,25Z" style="fill:#BA68C8"></path><path d="M124.22,361.3l-43.38-25c-.57-.33-.66-.84-.25-1.22a2.57,2.57,0,0,0-.33.33l-.14.19a3.13,3.13,0,0,0-.35.65,3.74,3.74,0,0,0-.12.45,2.83,2.83,0,0,0,0,.29v1.57a2.67,2.67,0,0,0,1.21,2.1l43.38,25Z" style="fill:#fff;opacity:0.4"></path></g><g id="freepik--Clip--inject-99"><g id="freepik--clip--inject-99"><path d="M176.22,277.25h0a2.45,2.45,0,0,0,1-2.27,7.74,7.74,0,0,0-3.49-6.05,2.45,2.45,0,0,0-2.48-.23h0l-55.76,32.18,4.94,8.56Z" style="fill:#37474f"></path><path d="M118,305.14l58.23-33.62a7.14,7.14,0,0,1,1,3.46c0,.14,0,.25,0,.37l-57.33,33.1Z" style="fill:#455a64"></path><path d="M121.49,307.17c0,2.23-1.56,3.13-3.49,2a7.74,7.74,0,0,1-3.49-6.05c0-2.23,1.56-3.13,3.49-2A7.71,7.71,0,0,1,121.49,307.17Z" style="fill:#263238"></path></g><g id="freepik--clip--inject-99"><path d="M206.94,278a2.26,2.26,0,0,1-1.26,1.95l-25.91,15a18.92,18.92,0,0,1-10,2.65,5.73,5.73,0,0,0-3.06.89,14.35,14.35,0,0,0-4.41,4.31,18.7,18.7,0,0,1-6.05,5.73l-28.54,16.48a5.19,5.19,0,0,1-2.48.58,6.36,6.36,0,0,1-3.09-.78l-14.83-8.56a2.79,2.79,0,0,1-1.59-2.3,2.25,2.25,0,0,1,1.25-1.94l10.51-6.07a.85.85,0,0,1,.93,0,.9.9,0,0,1,.27.28,1.25,1.25,0,0,1,.13.4.92.92,0,0,1-.44.81l-10.52,6.07c-.23.14-.36.28-.36.41s.22.48.71.76L123,323.19a4.41,4.41,0,0,0,3.8.2l28.55-16.48a16.84,16.84,0,0,0,5.47-5.19,16.06,16.06,0,0,1,5-4.85,7.47,7.47,0,0,1,4-1.13,17,17,0,0,0,9-2.41l25.91-15c.23-.13.37-.29.37-.42s-.21-.48-.71-.75l-14.83-8.58a4.4,4.4,0,0,0-3.8-.18L177,273.5a7.13,7.13,0,0,0-.65-1.67l8.57-4.92a6.08,6.08,0,0,1,5.56.18l14.84,8.58A2.75,2.75,0,0,1,206.94,278Z" style="opacity:0.2"></path><path d="M125.23,323.92a6.25,6.25,0,0,1-3.09-.78l-14.83-8.56a2.79,2.79,0,0,1-1.59-2.3,2.26,2.26,0,0,1,1.25-1.93l10.51-6.07a.88.88,0,1,1,.88,1.53l-10.51,6.07c-.22.13-.36.28-.36.4s.22.49.71.77L123,321.61a4.37,4.37,0,0,0,3.8.2l28.54-16.48a16.9,16.9,0,0,0,5.49-5.19,15.89,15.89,0,0,1,5-4.84,7.39,7.39,0,0,1,4-1.14,17,17,0,0,0,9-2.41l25.91-15c.23-.13.37-.28.37-.41s-.22-.48-.71-.76l-14.83-8.57a4.43,4.43,0,0,0-3.81-.19l-9.25,5.34a8.37,8.37,0,0,0-.91-1.52l9.28-5.36a6.14,6.14,0,0,1,5.57.2l14.84,8.57a2.77,2.77,0,0,1,1.58,2.29,2.24,2.24,0,0,1-1.25,1.94l-25.91,15a18.73,18.73,0,0,1-10,2.65,5.81,5.81,0,0,0-3.08.9,14.21,14.21,0,0,0-4.4,4.31,18.68,18.68,0,0,1-6.05,5.72l-28.54,16.48A5.05,5.05,0,0,1,125.23,323.92Z" style="fill:#455a64"></path></g></g><path d="M188.16,381.31l1,.59a2.22,2.22,0,0,0,2,0l49.88-28.79a.61.61,0,0,0,0-1.16l-1-.59a2.22,2.22,0,0,0-2,0l-49.88,28.79A.61.61,0,0,0,188.16,381.31Z" style="fill:#e0e0e0"></path><path d="M194.62,385l1,.59a2.25,2.25,0,0,0,2,0l112.4-64.87a.61.61,0,0,0,0-1.16l-1-.59a2.22,2.22,0,0,0-2,0l-112.4,64.87A.61.61,0,0,0,194.62,385Z" style="fill:#e0e0e0"></path><path d="M200.77,388.59l1,.59a2.22,2.22,0,0,0,2,0l112.41-64.87a.61.61,0,0,0,0-1.16l-1-.59a2.22,2.22,0,0,0-2,0l-112.4,64.87A.61.61,0,0,0,200.77,388.59Z" style="fill:#e0e0e0"></path><path d="M213.36,395.86l1,.59a2.25,2.25,0,0,0,2,0l49.87-28.79a.61.61,0,0,0,0-1.16l-1-.6a2.22,2.22,0,0,0-2,0l-49.88,28.8A.61.61,0,0,0,213.36,395.86Z" style="fill:#e0e0e0"></path><path d="M219.82,399.59l1,.59a2.22,2.22,0,0,0,2,0l112.41-64.87a.61.61,0,0,0,0-1.16l-1-.59a2.22,2.22,0,0,0-2,0l-112.4,64.87A.61.61,0,0,0,219.82,399.59Z" style="fill:#e0e0e0"></path><path d="M226,403.14l1,.59a2.22,2.22,0,0,0,2,0l112.41-64.87a.61.61,0,0,0,0-1.16l-1-.59a2.22,2.22,0,0,0-2,0L226,402A.61.61,0,0,0,226,403.14Z" style="fill:#e0e0e0"></path><path d="M162.31,366.38l1,.6a2.22,2.22,0,0,0,2,0l113-65.28a.61.61,0,0,0,0-1.16l-1-.6a2.22,2.22,0,0,0-2,0l-113,65.28A.61.61,0,0,0,162.31,366.38Z" style="fill:#e0e0e0"></path><path d="M168.83,370.15l1,.59a2.22,2.22,0,0,0,2,0l113.05-65.28a.61.61,0,0,0,0-1.16l-1-.59a2.22,2.22,0,0,0-2,0L168.83,369A.61.61,0,0,0,168.83,370.15Z" style="fill:#e0e0e0"></path><path d="M175.35,373.92l1,.59a2.22,2.22,0,0,0,2,0l113-65.28a.61.61,0,0,0,0-1.16l-1-.59a2.22,2.22,0,0,0-2,0l-113,65.28A.61.61,0,0,0,175.35,373.92Z" style="fill:#e0e0e0"></path><path d="M237.84,410l1,.6a2.25,2.25,0,0,0,2,0l113-65.28a.61.61,0,0,0,0-1.16l-1-.6a2.22,2.22,0,0,0-2,0l-113,65.28A.61.61,0,0,0,237.84,410Z" style="fill:#e0e0e0"></path><path d="M244.36,413.76l1,.59a2.22,2.22,0,0,0,2,0l113-65.28a.61.61,0,0,0,0-1.16l-1-.59a2.22,2.22,0,0,0-2,0l-113,65.28A.61.61,0,0,0,244.36,413.76Z" style="fill:#e0e0e0"></path><path d="M250.89,417.53l1,.59a2.22,2.22,0,0,0,2,0L367,352.84a.61.61,0,0,0,0-1.16l-1-.59a2.22,2.22,0,0,0-2,0l-113,65.28A.61.61,0,0,0,250.89,417.53Z" style="fill:#e0e0e0"></path><path d="M214.29,284.46l21.05-12.15a1.34,1.34,0,0,1,1.23,0l.69.4c.34.19.34.51,0,.71l-21,12.16a1.4,1.4,0,0,1-1.23,0l-.7-.4A.38.38,0,0,1,214.29,284.46Z" style="fill:#fafafa"></path><path d="M222.69,289.31l21.05-12.15a1.34,1.34,0,0,1,1.23,0l.69.4c.34.19.34.51,0,.71l-21,12.16a1.4,1.4,0,0,1-1.23,0l-.7-.4A.38.38,0,0,1,222.69,289.31Z" style="fill:#fafafa"></path><path d="M222.82,284.37l16.7-9.65a1.4,1.4,0,0,1,1.23,0l.7.4c.34.2.34.52,0,.71l-16.71,9.65a1.34,1.34,0,0,1-1.23,0l-.69-.4A.37.37,0,0,1,222.82,284.37Z" style="fill:#fafafa"></path></g></g><g id="freepik--broken-coin--inject-99"><g id="freepik--Coin--inject-99"><path d="M137.23,399a0,0,0,0,0,0,0,31.06,31.06,0,0,0-6.43-5C115.91,385.05,92,384.26,76,391.91l-.13,7.53,13.47,4.26L89.27,408l.66,6.93,24.88,3.86,3.94,10.75a22.47,22.47,0,0,0,2.08-1.06l14.3,2.48h0c5.87-4.88,8.05-10.84,6.53-16.58C143.23,409.23,141.76,403.8,137.23,399Z" style="fill:#BA68C8"></path><g id="freepik--coin--inject-99"><path d="M142.28,410.61l-.15,8.22c-.28,4.29-2.63,8.5-7,12.12l.13-7.53L121,420.94c-.66.38-1.34.73-2.08,1.07l-3.94-10.76-24.88-3.86-.65-6.93.07-4.29-1.91-.6c14.51-3,31.53-1,43.08,6a25.93,25.93,0,0,1,9.46,9.05Z" style="fill:#BA68C8"></path><path d="M142.28,410.61l-.15,8.22c-.28,4.29-2.63,8.5-7,12.12l.13-7.53L121,420.94c-.66.38-1.34.73-2.08,1.07l-3.94-10.76-24.88-3.86-.65-6.93.07-4.29-1.91-.6c14.51-3,31.53-1,43.08,6a25.93,25.93,0,0,1,9.46,9.05Z" style="opacity:0.25"></path><path d="M102.33,394.22l-.27,15-12-1.86-.65-6.93.07-4.29-1.91-.6A66.88,66.88,0,0,1,102.33,394.22Z" style="opacity:0.1"></path><path d="M142.28,410.61l-.15,8.22a15.5,15.5,0,0,1-3.31,8.33,22.94,22.94,0,0,1-3.68,3.79l.13-7.53-11.45-2,.41-23.06a44.49,44.49,0,0,1,6.42,3.15,25.93,25.93,0,0,1,9.46,9.05Z" style="fill:#BA68C8;opacity:0.5"></path><path d="M135.27,423.42h0L121,420.94c-.66.38-1.34.73-2.08,1.07l-3.94-10.76-24.88-3.86-.65-6.93.07-4.29L76,391.91c15.94-7.65,39.9-6.86,54.78,2.08a31.06,31.06,0,0,1,6.43,5,0,0,0,0,1,0,0C144.57,406.75,143.9,416.24,135.27,423.42Z" style="fill:#BA68C8"></path><path d="M135.27,423.42h0L121,420.94c-.66.38-1.34.73-2.08,1.07l-3.94-10.76-24.88-3.86-.65-6.93.07-4.29L76,391.91c15.94-7.65,39.9-6.86,54.78,2.08a31.06,31.06,0,0,1,6.43,5,0,0,0,0,1,0,0C144.57,406.75,143.9,416.24,135.27,423.42Z" style="opacity:0.2"></path><path d="M135.27,423.42h0l-.85-.15c3.22-2.73,6.06-6.12,6.78-9.82a17.54,17.54,0,0,0-3.8-14.22C144.57,406.89,143.83,416.3,135.27,423.42Z" style="fill:#f5f5f5;opacity:0.5"></path><path d="M79.25,390.51a30.32,30.32,0,0,0-3,1.49l-.29-.09A34.75,34.75,0,0,1,79.25,390.51Z" style="fill:#f5f5f5;opacity:0.5"></path><path d="M132.34,422.91l-11.38-2c-.66.38-1.34.73-2.08,1.07l-3.94-10.76-24.88-3.86-.65-6.93.07-4.29-10.79-3.42c14.8-6.7,36.51-5.84,50.09,2.34C141.74,402.87,142.88,414.68,132.34,422.91Z" style="fill:#BA68C8"></path><path d="M132.34,422.91l-11.38-2c-.66.38-1.34.73-2.08,1.07l-3.94-10.76-24.88-3.86-.65-6.93.07-4.29-10.79-3.42c14.8-6.7,36.51-5.84,50.09,2.34C141.74,402.87,142.88,414.68,132.34,422.91Z" style="fill:#fff;opacity:0.4"></path><path d="M137.65,417c3.1-5.5,2.23-11.65-2.64-16.93a25.45,25.45,0,0,0-3.12-2.83,31.9,31.9,0,0,0-3-2.05c-.59-.36-1.2-.7-1.82-1,1.5,2.59.89,5.32-7.93,5.68-17.25.7,4.3,17.55,4.3,17.55S134.65,412.19,137.65,417Z" style="fill:#fff;opacity:0.2"></path><path d="M136,412.37c2.59-.24,3.92-2.88,3-5.89s-3.83-5.25-6.42-5-3.92,2.89-3,5.89S133.36,412.62,136,412.37Z" style="fill:#fff;opacity:0.5"></path><path d="M122.29,421.17l-1.33-.23c-.66.38-1.34.73-2.08,1.07l-3.94-10.76-24.88-3.86-.65-6.93.07-4.29-1.29-.41c10.23-3.27,23.35-2.45,32.41,2.33.46.25.91.5,1.36.77C132.48,405.18,132.55,415.05,122.29,421.17Z" style="fill:#BA68C8"></path><path d="M122.29,421.17l-1.33-.23c-.66.38-1.34.73-2.08,1.07l-3.94-10.76-24.88-3.86-.65-6.93.07-4.29-1.29-.41c10.23-3.27,23.35-2.45,32.41,2.33.46.25.91.5,1.36.77C132.48,405.18,132.55,415.05,122.29,421.17Z" style="opacity:0.2"></path><path d="M121,420.94c-.18.11-.37.21-.56.31l-.69.36-.83.4-3.94-10.76-24.88-3.86-.65-6.93.07-4.28c10.18-3,23.13-1.94,31.61,3.16C131.3,405.48,131.22,415.1,121,420.94Z" style="fill:#BA68C8"></path><path d="M121,420.94c-.18.11-.37.21-.56.31l-.69.36-.83.4-3.94-10.76-24.88-3.86-.65-6.93.07-4.28c10.18-3,23.13-1.94,31.61,3.16C131.3,405.48,131.22,415.1,121,420.94Z" style="opacity:0.5"></path><path d="M128.4,412.49c-.81,3.12-3.3,6.09-7.44,8.45-.18.11-.37.21-.56.31l-.69.36-.83.4-3.94-10.76-24.88-3.86-.65-6.92c10.17-3,23.12-1.94,31.61,3.16C125.22,406.16,127.68,409.29,128.4,412.49Z" style="fill:#BA68C8"></path><path d="M128.4,412.49c-.81,3.12-3.3,6.09-7.44,8.45-.18.11-.37.21-.56.31l-.69.36-.83.4-3.94-10.76-24.88-3.86-.65-6.92c10.17-3,23.12-1.94,31.61,3.16C125.22,406.16,127.68,409.29,128.4,412.49Z" style="opacity:0.35000000000000003"></path></g><path d="M118.88,422l-.13,7.52,2.08-1.06.13-7.53A21.51,21.51,0,0,1,118.88,422Z" style="opacity:0.25"></path><polygon points="114.94 411.25 114.81 418.78 118.75 429.53 118.88 422 114.94 411.25" style="fill:#fff;opacity:0.2"></polygon><polygon points="90.06 407.39 89.93 414.92 89.27 407.99 89.41 400.47 90.06 407.39" style="fill:#fff;opacity:0.2"></polygon></g><g id="freepik--coin--inject-99"><path d="M123.62,434.61l-.13,7.53a33.07,33.07,0,0,1-5.06,3.42c-15.87,8.79-41.35,8.34-56.89-1-7.48-4.5-11.29-10.23-11.47-16h0l.14-8.22,2.17,0a26.18,26.18,0,0,1,9.76-8.71,49.19,49.19,0,0,1,13.81-4.95l1.91.6-.07,4.29.66,6.92,24.87,3.87,3.94,10.75c.74-.34,1.43-.68,2.08-1.06Z" style="fill:#BA68C8"></path><path d="M123.62,434.61l-.13,7.53a33.07,33.07,0,0,1-5.06,3.42c-15.87,8.79-41.35,8.34-56.89-1-7.48-4.5-11.29-10.23-11.47-16h0l.14-8.22,2.17,0a26.18,26.18,0,0,1,9.76-8.71,49.19,49.19,0,0,1,13.81-4.95l1.91.6-.07,4.29.66,6.92,24.87,3.87,3.94,10.75c.74-.34,1.43-.68,2.08-1.06Z" style="opacity:0.25"></path><path d="M90.42,420.43l-.56,31.43c-10.29-.18-20.54-2.63-28.32-7.3-7.48-4.5-11.29-10.23-11.47-16h0l.14-8.22,2.17,0a26.18,26.18,0,0,1,9.76-8.71,49.19,49.19,0,0,1,13.81-4.95l1.91.6-.07,4.29.66,6.92Z" style="opacity:0.1"></path><path d="M68.64,408.79a43.32,43.32,0,0,0-6.52,2.92,25.91,25.91,0,0,0-9.77,8.72l-2.17,0L50,428.61h0c.19,5.72,4,11.45,11.48,15.94A43.48,43.48,0,0,0,68,447.7Z" style="opacity:0.1"></path><path d="M123.62,434.61l-.13,7.53a33.07,33.07,0,0,1-5.06,3.42,44.44,44.44,0,0,1-6.53,2.91l.27-15.84Z" style="fill:#BA68C8;opacity:0.5"></path><path d="M123.61,434.61a32.45,32.45,0,0,1-5,3.41,43,43,0,0,1-5.74,2.64l-.62.23c-15.72,5.67-36.92,4.31-50.53-3.87-15.55-9.35-15.29-24,.58-32.85.68-.37,1.39-.74,2.12-1.08l13.46,4.27-.07,4.29.66,6.92,24.87,3.87,3.94,10.75c.74-.34,1.43-.68,2.08-1.06Z" style="fill:#BA68C8"></path><path d="M123.61,434.61a32.45,32.45,0,0,1-5,3.41,43,43,0,0,1-5.74,2.64l-.62.23c-15.72,5.67-36.92,4.31-50.53-3.87-15.55-9.35-15.29-24,.58-32.85.68-.37,1.39-.74,2.12-1.08l13.46,4.27-.07,4.29.66,6.92,24.87,3.87,3.94,10.75c.74-.34,1.43-.68,2.08-1.06Z" style="opacity:0.2"></path><path d="M123.61,434.61a32.45,32.45,0,0,1-5,3.41,43,43,0,0,1-5.74,2.64,40,40,0,0,0,9.93-6.21Z" style="fill:#f5f5f5;opacity:0.5"></path><path d="M51.28,417.57a17.49,17.49,0,0,0,3.89,14.32c-8.52-9-6.11-20.4,7.08-27.72.68-.37,1.39-.74,2.12-1.08l.28.1C59.73,405.94,52.48,411.3,51.28,417.57Z" style="fill:#f5f5f5;opacity:0.5"></path><path d="M120.69,434.1a30,30,0,0,1-4.1,2.7c-14.74,8.18-38.43,7.76-52.88-.93s-14.22-22.36.54-30.53c.9-.49,1.82-1,2.79-1.4l10.79,3.42-.07,4.29.66,6.92,24.87,3.87,3.94,10.75c.74-.34,1.43-.68,2.08-1.06Z" style="fill:#BA68C8"></path><path d="M120.69,434.1a30,30,0,0,1-4.1,2.7c-14.74,8.18-38.43,7.76-52.88-.93s-14.22-22.36.54-30.53c.9-.49,1.82-1,2.79-1.4l10.79,3.42-.07,4.29.66,6.92,24.87,3.87,3.94,10.75c.74-.34,1.43-.68,2.08-1.06Z" style="fill:#fff;opacity:0.4"></path><path d="M96.8,436.8c-.73-6.41-28.4-24.62-28.4-24.62s-6.16-2.6-4-6.9a31.33,31.33,0,0,0-3,1.88,22.81,22.81,0,0,0-1.84,1.41c-8.46,7.06-8.64,16.54-.42,23.9A22.36,22.36,0,0,0,60.88,434c.85.64,1.76,1.25,2.74,1.85s1.92,1.11,2.94,1.61c.81.4,1.65.77,2.5,1.13s1.72.68,2.61,1A55,55,0,0,0,80,441.68l1.87.31a65.89,65.89,0,0,0,8.34.67,64.21,64.21,0,0,0,10.22-.66S95.93,441,96.8,436.8Z" style="fill:#BA68C8"></path><path d="M96.8,436.8c-.73-6.41-28.4-24.62-28.4-24.62s-6.16-2.6-4-6.9a31.33,31.33,0,0,0-3,1.88,22.81,22.81,0,0,0-1.84,1.41c-8.46,7.06-8.64,16.54-.42,23.9A22.36,22.36,0,0,0,60.88,434c.85.64,1.76,1.25,2.74,1.85s1.92,1.11,2.94,1.61c.81.4,1.65.77,2.5,1.13s1.72.68,2.61,1A55,55,0,0,0,80,441.68l1.87.31a65.89,65.89,0,0,0,8.34.67,64.21,64.21,0,0,0,10.22-.66S95.93,441,96.8,436.8Z" style="fill:#fff;opacity:0.30000000000000004"></path><path d="M110.64,432.36c-.24.15-.49.29-.74.43-11,6.08-28.61,5.77-39.39-.7q-.66-.39-1.26-.81c-9.48-6.49-8.89-16.09,1.66-21.93a31,31,0,0,1,5.63-2.4l1.29.41-.07,4.29.66,6.92,24.87,3.87,3.94,10.75c.74-.34,1.43-.68,2.08-1.06Z" style="fill:#BA68C8"></path><path d="M110.64,432.36c-.24.15-.49.29-.74.43-11,6.08-28.61,5.77-39.39-.7q-.66-.39-1.26-.81c-9.48-6.49-8.89-16.09,1.66-21.93a31,31,0,0,1,5.63-2.4l1.29.41-.07,4.29.66,6.92,24.87,3.87,3.94,10.75c.74-.34,1.43-.68,2.08-1.06Z" style="opacity:0.2"></path><path d="M107.23,433.19c-10.54,4.85-26.11,4.25-35.83-1.58-10.3-6.19-10.13-15.92.38-21.75a30.83,30.83,0,0,1,6-2.49l-.07,4.28.66,6.92,24.87,3.87Z" style="fill:#BA68C8"></path><path d="M107.23,433.19c-10.54,4.85-26.11,4.25-35.83-1.58-10.3-6.19-10.13-15.92.38-21.75a30.83,30.83,0,0,1,6-2.49l-.07,4.28.66,6.92,24.87,3.87Z" style="opacity:0.5"></path><path d="M107.23,433.19c-10.54,4.85-26.11,4.25-35.83-1.58-4.21-2.53-6.67-5.66-7.38-8.86.83-3.18,3.39-6.21,7.68-8.6a30.32,30.32,0,0,1,6.06-2.49l.66,6.91,24.87,3.87Z" style="fill:#BA68C8"></path><path d="M107.23,433.19c-10.54,4.85-26.11,4.25-35.83-1.58-4.21-2.53-6.67-5.66-7.38-8.86.83-3.18,3.39-6.21,7.68-8.6a30.32,30.32,0,0,1,6.06-2.49l.66,6.91,24.87,3.87Z" style="opacity:0.35000000000000003"></path></g></g><g id="freepik--coin--inject-99"><g id="freepik--coin--inject-99"><path d="M444.29,420.22a26.42,26.42,0,0,0-9.77-9c-16-9.22-41.86-9.22-57.84,0a26.5,26.5,0,0,0-9.77,9h-2.2v8.36h0c.3,5.8,4.27,11.56,11.95,16,16,9.22,41.87,9.22,57.84,0,7.68-4.44,11.69-10.2,12-16h0v-8.36Z" style="fill:#BA68C8"></path><path d="M444.29,420.22a26.42,26.42,0,0,0-9.77-9c-16-9.22-41.86-9.22-57.84,0a26.5,26.5,0,0,0-9.77,9h-2.2v8.36h0c.3,5.8,4.27,11.56,11.95,16,16,9.22,41.87,9.22,57.84,0,7.68-4.44,11.69-10.2,12-16h0v-8.36Z" style="opacity:0.25"></path><path d="M405.61,404.27c-10.47,0-20.94,2.3-28.93,6.91a26.5,26.5,0,0,0-9.77,9h-2.2v8.36h0c.3,5.8,4.27,11.56,11.95,16,8,4.61,18.46,6.91,28.93,6.91Z" style="opacity:0.1"></path><path d="M383.27,408.1a45.25,45.25,0,0,0-6.59,3.08,26.5,26.5,0,0,0-9.77,9h-2.2v8.36h0c.3,5.8,4.27,11.56,11.95,16a45.25,45.25,0,0,0,6.59,3.08Z" style="opacity:0.1"></path><path d="M427.94,408.1a44.65,44.65,0,0,1,6.58,3.08,26.42,26.42,0,0,1,9.77,9h2.21v8.36h0c-.29,5.81-4.3,11.57-12,16a44.65,44.65,0,0,1-6.58,3.08Z" style="fill:#BA68C8;opacity:0.5"></path><path d="M376.68,403.53c-16,9.22-16,24.17,0,33.39,14,8.07,35.55,9.08,51.43,3h0l.63-.25a45.36,45.36,0,0,0,5.78-2.78c13.32-7.69,15.54-19.36,6.64-28.38h0a30.68,30.68,0,0,0-6.63-5C418.55,394.31,392.66,394.3,376.68,403.53Z" style="fill:#BA68C8"></path><path d="M376.68,403.53c-16,9.22-16,24.17,0,33.39,14,8.07,35.55,9.08,51.43,3h0l.63-.25a45.36,45.36,0,0,0,5.78-2.78c13.32-7.69,15.54-19.36,6.64-28.38h0a30.68,30.68,0,0,0-6.63-5C418.55,394.31,392.66,394.3,376.68,403.53Z" style="opacity:0.2"></path><path d="M441.16,408.54a17.9,17.9,0,0,1,4.28,14.57c-1.42,8.12-12.78,14.95-16.7,16.59a45.36,45.36,0,0,0,5.78-2.78C447.84,429.23,450.06,417.56,441.16,408.54Z" style="fill:#f5f5f5;opacity:0.5"></path><path d="M370.05,431.9a17.87,17.87,0,0,1-4.28-14.57c1.42-8.11,12.78-14.94,16.7-16.58a44.19,44.19,0,0,0-5.79,2.78C363.37,411.22,361.15,422.89,370.05,431.9Z" style="fill:#f5f5f5;opacity:0.5"></path><ellipse cx="405.62" cy="420.19" rx="38.02" ry="21.95" style="fill:#BA68C8"></ellipse><ellipse cx="405.62" cy="420.19" rx="38.02" ry="21.95" style="fill:#fff;opacity:0.4"></ellipse><path d="M441.91,426.75c3.06-5.65,2.06-11.88-3-17.16a25.1,25.1,0,0,0-3.23-2.82,31.41,31.41,0,0,0-3.07-2c-.61-.36-1.23-.69-1.88-1,1.58,2.6,1,5.39-7.95,5.91-17.52,1,4.68,17.77,4.68,17.77S438.78,422,441.91,426.75Z" style="fill:#fff;opacity:0.2"></path><path d="M440.1,422.11c2.63-.29,3.94-3,2.91-6s-4-5.27-6.61-5-3.93,3-2.91,6S437.47,422.41,440.1,422.11Z" style="fill:#fff;opacity:0.5"></path><path d="M412.39,436.07c-.87-6.51-29.31-24.52-29.31-24.52s-6.31-2.53-4.22-6.94a33.12,33.12,0,0,0-3,2c-.65.48-1.27,1-1.85,1.47-8.46,7.33-8.47,17,0,24.3.57.5,1.19,1,1.84,1.47.88.63,1.81,1.24,2.82,1.83s2,1.09,3,1.58c.83.39,1.69.76,2.56,1.11s1.76.66,2.67,1a56.13,56.13,0,0,0,8.48,2l1.91.27a66.63,66.63,0,0,0,8.49.54,64,64,0,0,0,10.38-.86S411.57,440.35,412.39,436.07Z" style="fill:#BA68C8"></path><path d="M412.39,436.07c-.87-6.51-29.31-24.52-29.31-24.52s-6.31-2.53-4.22-6.94a33.12,33.12,0,0,0-3,2c-.65.48-1.27,1-1.85,1.47-8.46,7.33-8.47,17,0,24.3.57.5,1.19,1,1.84,1.47.88.63,1.81,1.24,2.82,1.83s2,1.09,3,1.58c.83.39,1.69.76,2.56,1.11s1.76.66,2.67,1a56.13,56.13,0,0,0,8.48,2l1.91.27a66.63,66.63,0,0,0,8.49.54,64,64,0,0,0,10.38-.86S411.57,440.35,412.39,436.07Z" style="fill:#fff;opacity:0.30000000000000004"></path><path d="M385.58,408.63c-10.61,6.12-11,15.9-1.3,22.32.42.27.85.54,1.3.8,11.06,6.39,29,6.39,40.05,0s11.07-16.74,0-23.12c-.45-.26-.92-.51-1.39-.75C413.12,402.25,396.19,402.5,385.58,408.63Z" style="fill:#BA68C8"></path><path d="M385.58,408.63c-10.61,6.12-11,15.9-1.3,22.32.42.27.85.54,1.3.8,11.06,6.39,29,6.39,40.05,0s11.07-16.74,0-23.12c-.45-.26-.92-.51-1.39-.75C413.12,402.25,396.19,402.5,385.58,408.63Z" style="opacity:0.2"></path><ellipse cx="405.62" cy="420.19" rx="27.07" ry="15.63" style="fill:#BA68C8"></ellipse><ellipse cx="405.62" cy="420.19" rx="27.07" ry="15.63" style="opacity:0.5"></ellipse><path d="M386.48,413.5c10.57-6.11,27.71-6.11,38.28,0,4.33,2.49,6.88,5.62,7.67,8.87-.79,3.24-3.34,6.38-7.67,8.87-10.57,6.11-27.71,6.11-38.28,0-4.33-2.49-6.88-5.63-7.67-8.87C379.6,419.12,382.15,416,386.48,413.5Z" style="fill:#BA68C8"></path><path d="M386.48,413.5c10.57-6.11,27.71-6.11,38.28,0,4.33,2.49,6.88,5.62,7.67,8.87-.79,3.24-3.34,6.38-7.67,8.87-10.57,6.11-27.71,6.11-38.28,0-4.33-2.49-6.88-5.63-7.67-8.87C379.6,419.12,382.15,416,386.48,413.5Z" style="opacity:0.35000000000000003"></path><path d="M422.67,424.9c0-.53,0-2.68,0-3.23,0-1.33-.92-2.61-2.89-3.77l-.07,0c-3.63-2.1-7.39-1.83-10.74-1h0c-1.43.36-2.78.82-4,1.24a38.77,38.77,0,0,1-4.3,1.34h0a7.49,7.49,0,0,1-2,.19,4.21,4.21,0,0,1-1.7-.45l.14-.09.42-.26a8.57,8.57,0,0,1,1.14-.56,7.83,7.83,0,0,1,6-.14l3.47-3.5v-3.22a16.57,16.57,0,0,0-9.49-.34,19.64,19.64,0,0,0-3,1l-3.47-2L388,412.52v3.21l1.41.82a3.51,3.51,0,0,0-.61,1.88c0,.53,0,2.67,0,3.2,0,1.33,1,2.61,3,3.77a12.17,12.17,0,0,0,5.72,1.64h0c.38,0,.77,0,1.15,0a23.06,23.06,0,0,0,6.14-1.33l1.2-.41-3.5,3.5V432a17,17,0,0,0,13.39-.58l3.43,2,4.14-2.39v-3.21L422,427A3.81,3.81,0,0,0,422.67,424.9Zm-8.74-.28a8.59,8.59,0,0,1-1,.48,8.87,8.87,0,0,1-6.77.1c3.24-1.14,5.95-2.14,8.26-.91C414.3,424.4,414.12,424.51,413.93,424.62Z" style="fill:#BA68C8"></path><path d="M409,416.88h0c-1.43.36-2.78.82-4,1.24a38.77,38.77,0,0,1-4.3,1.34h0a7.49,7.49,0,0,1-2,.19,4.33,4.33,0,0,1-2-.58c-1.34-.77-1.53-1.9.41-3.17a4.28,4.28,0,0,1,.42-.26,10.1,10.1,0,0,1,1.14-.57,7.82,7.82,0,0,1,6-.13l3.47-3.51a16.57,16.57,0,0,0-9.49-.34,19.64,19.64,0,0,0-3,1l-3.47-2L388,412.52l3.43,2,0,0c-3.48,2.65-3.55,5.39.37,7.65a12.07,12.07,0,0,0,5.72,1.65h0c.38,0,.77,0,1.15,0a22.67,22.67,0,0,0,6.14-1.32c4-1.33,7.2-2.9,9.87-1.35,1.8,1,1.3,2.33-.67,3.47a8.59,8.59,0,0,1-1,.48,8.9,8.9,0,0,1-6.9,0l-3.64,3.65a17,17,0,0,0,13.39-.58l3.43,2,4.14-2.39-3.43-2c3.45-2.67,3.84-5.57-.18-7.93l-.07,0C416.08,415.76,412.32,416,409,416.88Z" style="fill:#BA68C8"></path><g style="opacity:0.30000000000000004"><path d="M409,416.88h0c-1.43.36-2.78.82-4,1.24a38.77,38.77,0,0,1-4.3,1.34h0a7.49,7.49,0,0,1-2,.19,4.33,4.33,0,0,1-2-.58c-1.34-.77-1.53-1.9.41-3.17a4.28,4.28,0,0,1,.42-.26,10.1,10.1,0,0,1,1.14-.57,7.82,7.82,0,0,1,6-.13l3.47-3.51a16.57,16.57,0,0,0-9.49-.34,19.64,19.64,0,0,0-3,1l-3.47-2L388,412.52l3.43,2,0,0c-3.48,2.65-3.55,5.39.37,7.65a12.07,12.07,0,0,0,5.72,1.65h0c.38,0,.77,0,1.15,0a22.67,22.67,0,0,0,6.14-1.32c4-1.33,7.2-2.9,9.87-1.35,1.8,1,1.3,2.33-.67,3.47a8.59,8.59,0,0,1-1,.48,8.9,8.9,0,0,1-6.9,0l-3.64,3.65a17,17,0,0,0,13.39-.58l3.43,2,4.14-2.39-3.43-2c3.45-2.67,3.84-5.57-.18-7.93l-.07,0C416.08,415.76,412.32,416,409,416.88Z" style="fill:#fff"></path></g><polygon points="387.96 412.52 392.14 410.63 395.57 412.13 392.1 410.13 387.96 412.52" style="fill:#f5f5f5;opacity:0.45"></polygon><path d="M398.11,411.22a19.43,19.43,0,0,1,8.9.3l-2.4,3.42,3.47-3.51A16.62,16.62,0,0,0,398.11,411.22Z" style="fill:#f5f5f5;opacity:0.45"></path><path d="M419.71,417.86l.07,0c4,2.36,3.63,5.26.18,7.93,3.05-3.33,2.5-5.65-.81-7.56s-7.55-1.89-10.18-1.39C412.32,416,416.08,415.76,419.71,417.86Z" style="fill:#f5f5f5;opacity:0.45"></path><polygon points="419.96 425.83 422.59 427.85 419.25 430.2 423.39 427.81 419.96 425.83" style="fill:#f5f5f5;opacity:0.45"></polygon><path d="M413,425.1a8.89,8.89,0,0,1-6.6.58l-3.94,3.12,3.64-3.65A8.9,8.9,0,0,0,413,425.1Z" style="fill:#f5f5f5;opacity:0.45"></path><path d="M400.63,419.46c-1.57.61-3.82.51-5-.47s-.43-2.13,1.36-3.09c-1.94,1.27-1.75,2.4-.41,3.17a4.33,4.33,0,0,0,2,.58A7.49,7.49,0,0,0,400.63,419.46Z" style="fill:#f5f5f5;opacity:0.45"></path><path d="M391.35,414.53c-.29.26-2.78,2.58-1.68,4.91,1.17,2.48,4.82,4.07,7.77,4.39h0a12.07,12.07,0,0,1-5.72-1.65C387.8,419.92,387.87,417.18,391.35,414.53Z" style="fill:#f5f5f5;opacity:0.45"></path></g></g><g id="freepik--Character--inject-99"><g id="freepik--character--inject-99"><path d="M287.06,175.89a18.66,18.66,0,0,0,3.69,5.55c4.12,4,7.73,7.67,8.91,9,2.34,2.56,2.17,5.76,2,8.11-.15,1.84,1.21,4,0,5.45s-1.71,3.33-2.61,4.74a8.25,8.25,0,0,1-2.49,2.13,23.25,23.25,0,0,0-3.06,2.55c-.58.58-1.29,1.24-2.09,1.07a1.93,1.93,0,0,1-1.22-1.91,8.91,8.91,0,0,0-.15-2.43.57.57,0,0,0-.15-.26c-.16-.15-.42-.1-.64-.16-.44-.13-.6-.65-.7-1.1-.4-1.76-.67-3.54-1-5.29a12.36,12.36,0,0,0-.95-2.54c-.13-.29-.77-1.1-.77-1.39-1.56-1.71-5.94-2.95-7.95-7.83-1.83-4.45-1.47-6.54-6.22-12.85l12.7-8.56C284.35,170.24,285.37,172.28,287.06,175.89Z" style="fill:#ffa8a7"></path><path d="M271.05,200.85a29.06,29.06,0,0,1,6.77-3.26,56,56,0,0,1,10.32-3.12,14,14,0,0,1,6.49.07,7,7,0,0,1,4.47,4.94,8.52,8.52,0,0,1-2.48,7.58c-5.38,4.86-8.91,7.35-12.16,14.2-1.6,3.35-4.14,2.08-6.4,0s-4.58-5.1-5.26-8.14C271.41,206.91,271,204.24,271.05,200.85Z" style="fill:#fff"></path><path d="M291.45,194.6h0a11,11,0,0,1,3.05.4,6.52,6.52,0,0,1,4.13,4.58,8,8,0,0,1-2.33,7.12l-2.08,1.86c-4.26,3.76-7.34,6.48-10.2,12.49-.57,1.21-1.27,1.79-2.14,1.79s-2.1-.65-3.5-1.93a16.59,16.59,0,0,1-5.11-7.89c-1.37-6.12-1.76-8.75-1.74-11.92A29,29,0,0,1,278,198a55.46,55.46,0,0,1,10.23-3.1,16.27,16.27,0,0,1,3.22-.34m0-.48a16.76,16.76,0,0,0-3.31.35,56,56,0,0,0-10.32,3.12,29.06,29.06,0,0,0-6.77,3.26c0,3.39.36,6.06,1.75,12.27.68,3,3,6.07,5.26,8.14,1.26,1.16,2.6,2.06,3.82,2.06,1,0,1.87-.58,2.58-2.06,3.25-6.85,6.78-9.34,12.16-14.2a8.52,8.52,0,0,0,2.48-7.58,7,7,0,0,0-4.47-4.94,11.34,11.34,0,0,0-3.18-.42Z" style="fill:#e6e6e6"></path><path d="M276.84,219.81A19.53,19.53,0,0,1,288,206.6c.22-.09.18.3,0,.38a21.24,21.24,0,0,0-10.16,13.07C277.76,220.64,276.67,220.48,276.84,219.81Z" style="fill:#e0e0e0"></path><path d="M271.92,210.27a17.17,17.17,0,0,1,3.3-3.35,26.58,26.58,0,0,1,3.93-2.74,24,24,0,0,1,9.77-3c.19,0,.11.35-.05.37a29,29,0,0,0-9.11,3.48,25.4,25.4,0,0,0-3.63,2.54c-.58.49-1.15,1-1.68,1.55s-1,1.14-1.54,1.67C272.54,211.14,271.53,210.85,271.92,210.27Z" style="fill:#e0e0e0"></path><path d="M294.08,185.31l.6.59a18.77,18.77,0,0,1,1.91,2.36,5.8,5.8,0,0,1,.76,3.15,19.93,19.93,0,0,1-.39,3.77c-.49,2.88-1,5.76-1.46,8.65a1.27,1.27,0,0,1-.25.65c-1.18,1.27-3.25-1.17-3.55-2.12a9.73,9.73,0,0,1-.28-3l0-3.3a2.54,2.54,0,0,0-1.17-2.36,65.38,65.38,0,0,0-5.56-3.54,10.13,10.13,0,0,1-2.46-2,9.28,9.28,0,0,1-1.73-4.39c-.33-1.83-.7-3.67-1-5.49,0-.26-.87-3.28-.78-3.35l5.4-4c1.61,3,3.71,8.09,6,10.64C291.39,183,292.79,184.08,294.08,185.31Z" style="fill:#ffa8a7"></path><path d="M273.11,105.51c10.33,2.92,13.16,11.24,11,20.93-1.51,6.91-8,23.71-8,23.71l9,20.64c-1.41,5.05-9.22,8.76-13.55,8.94,0,0-12.65-13.6-17.93-21.33-3.68-5.39-4.13-6.32-1.56-13.21,2.15-5.75,7.28-17.32,10-23.44C268.62,106.81,273.11,105.51,273.11,105.51Z" style="fill:#455a64"></path><g id="freepik--Bottom--inject-99"><path d="M282.39,353.28c-1.23-2-2-5.36-2.05-10.62s1-22.16,1-22.16H256.83s5.21,25.68,5.35,27.27c0,0,.05.61.1,1.28.41,5.35,7.08,7.45,12.28,10.67a93.3,93.3,0,0,0,14,7.37c3.71,1.47,11,1.1,11.77-1.16C294,362,285.92,359.15,282.39,353.28Z" style="fill:#ffa8a7"></path><path d="M311,371c.31,0,1,3.19-.57,4.68-1.82,1.73-7.31,4.74-14.88,4.35s-11.79-2.32-15-4.5-7.63-5.26-11.07-5.73c-3.2-.44-6.72-1.56-7.8-2.42s-1.23-5-1.23-5Z" style="fill:#263238"></path><path d="M261.93,346.27s-.56.05-.69,1c-.15,1.16-.16,4.48-.52,6.39-.5,2.64-.58,8,0,10.08s5.81,3.19,9.18,4.15A42.12,42.12,0,0,1,281,373.56c3.72,2.52,11.34,4.77,16.23,4.49,7.48-.42,12.17-2.69,13.48-5.36s-.17-5.1-2.44-6.72a37.84,37.84,0,0,0-6.43-3.29c-2.54-1.18-5.07-2.4-7.57-3.67a33.14,33.14,0,0,1-8.83-5.86A9.08,9.08,0,0,1,283,348a3.71,3.71,0,0,0-.65-1.86c-1.07-1.17-3.69-.61-5-.21a27.47,27.47,0,0,0-6.46,3,4.21,4.21,0,0,0-1.56,1.46,5.19,5.19,0,0,0-.4,1.89,16.21,16.21,0,0,1-.43,2.29c-.05.22-.15.47-.38.51s-.37-.14-.49-.3c-1.62-2-1.54-4.61-3.88-6.09A3.66,3.66,0,0,1,261.93,346.27Z" style="fill:#37474f"></path><path d="M302.63,363c-10.76,1.47-14.81,9.54-15,13.51a24.81,24.81,0,0,0,9.76,1.78c7.47-.42,12.29-3,13.6-5.65C312.54,369.57,310.49,365.27,302.63,363Z" style="fill:#fafafa"></path><path d="M288.8,364.93a.56.56,0,0,1-.35-.09.49.49,0,0,1-.12-.7,13,13,0,0,1,9.51-4.37.51.51,0,1,1,0,1,12.11,12.11,0,0,0-8.61,3.93A.52.52,0,0,1,288.8,364.93Z" style="fill:#f0f0f0"></path><path d="M284,362.67a.56.56,0,0,1-.35-.09.48.48,0,0,1-.12-.7,13,13,0,0,1,9.51-4.36.51.51,0,0,1,.51.52.53.53,0,0,1-.55.49,12,12,0,0,0-8.61,3.93A.51.51,0,0,1,284,362.67Z" style="fill:#f0f0f0"></path><path d="M279.43,360a.52.52,0,0,1-.34-.09.5.5,0,0,1-.13-.71,13.09,13.09,0,0,1,9.51-4.36.51.51,0,1,1,0,1,12.11,12.11,0,0,0-8.6,3.93A.56.56,0,0,1,279.43,360Z" style="fill:#f0f0f0"></path><path d="M275,357.38a.57.57,0,0,1-.33-.09.48.48,0,0,1-.14-.7c1.89-2.64,6.45-4.61,10.41-4.48a.5.5,0,0,1,.5.52.53.53,0,0,1-.55.49c-3.56-.12-7.81,1.7-9.49,4A.54.54,0,0,1,275,357.38Z" style="fill:#f0f0f0"></path><path d="M204.32,322.33c-.25,14.53.81,23-.12,34.45-.21,2.67-2.4,20.7-1.89,26.28.76,8.39,12.64,8.26,13.77,3.38s3.88-26.17,4.16-28.34c.87-8.56,5.55-19.36,9.14-35.77Z" style="fill:#ffa8a7"></path><path d="M219.81,390.25c-.32,4.86-1.16,8.08-3.09,10.93s-5.56,3.75-9.24,2.91-8.4-3.06-9.45-7.26-1.67-7.07-.84-11.57Z" style="fill:#263238"></path><path d="M204.33,355c-1.51.11-2,6.64-2.84,13.17-.93,7-3.27,9.9-4.11,15.65-1,6.56.26,9.49,2.83,13.46s11.66,7.86,16.14,2.18c3.65-4.64,3.8-9.77,3.47-16.32a131.28,131.28,0,0,1,.49-16.61c.29-4.91,1.51-9.87.19-10.41-.1.72-.2,1.63-.31,2.34a10.19,10.19,0,0,1-.49,2.62c-.15.37-.49.75-.63.16a3.9,3.9,0,0,1,0-1.23c.23-1.81-.79-1.95-1.34-2.09-1.19-.31-5.9-.83-7-.9s-5.16-.22-5.68.37a3.75,3.75,0,0,0-.51,1.89c-.13,1-.38,1.72-.41,1.41a27.28,27.28,0,0,1,.1-3c0-.43.09-1,.1-1.44S204.3,355.46,204.33,355Z" style="fill:#37474f"></path><path d="M197,387.66a15.06,15.06,0,0,0,2.84,10c2.57,4,12.39,7.88,16.87,2.19,2.23-2.82,2.83-6.17,3.14-9.58C217.12,385.86,201.2,383.93,197,387.66Z" style="fill:#fafafa"></path><path d="M216.5,383.11a.59.59,0,0,1-.19-.05c-.06,0-7.08-2.62-13.91-1.21a.59.59,0,0,1-.68-.38.5.5,0,0,1,.43-.6c7.22-1.49,14.38,1.17,14.65,1.28a.47.47,0,0,1,.26.67A.57.57,0,0,1,216.5,383.11Z" style="fill:#f0f0f0"></path><path d="M202.74,377a.57.57,0,0,1-.48-.34.5.5,0,0,1,.35-.64c6.8-2.06,14.35,1,14.64,1.17a.48.48,0,0,1,.23.68.61.61,0,0,1-.76.21c-.06,0-7.42-3-13.74-1.1A.65.65,0,0,1,202.74,377Z" style="fill:#f0f0f0"></path><path d="M203,372.35a.54.54,0,0,1-.47-.33.49.49,0,0,1,.33-.65c7.48-2.39,14.65,1,14.91,1.13a.47.47,0,0,1,.19.69.59.59,0,0,1-.77.17c-.06,0-7-3.27-13.95-1A.5.5,0,0,1,203,372.35Z" style="fill:#f0f0f0"></path><path d="M203.35,367.81a.55.55,0,0,1-.47-.33.48.48,0,0,1,.33-.64c7-2.35,14.72,1.11,15,1.27a.46.46,0,0,1,.2.68.59.59,0,0,1-.76.19c-.07,0-7.55-3.38-14.06-1.2A.54.54,0,0,1,203.35,367.81Z" style="fill:#ebebeb"></path><path d="M282.36,193.59l-71.07.81s-4.12,70.74-4.25,74.47-1.88,10.28-3.29,28.71c-1.22,16,0,48.36,0,48.36a16,16,0,0,0,9.65,4.28c6.36.69,9.48-1.94,9.48-1.94s11.77-44.27,14.35-55.34,11-53.59,11-53.59l4.55,36.41s-1.58,10.12.49,26.24,6.44,36.18,6.44,36.18,3.61,2.68,10.62,2.17c7.81-.58,10.66-3.79,10.66-3.79s4.2-51.35,4.2-69.62C285.15,253.32,283.93,219.88,282.36,193.59Z" style="fill:#455a64"></path><path d="M252,214.25l-3.83,25.1,4.55,36.41-.69-35.57,3.85-22.4c4.62-1,13-4.29,14.39-10.37C263.16,214.52,252,214.25,252,214.25Z" style="fill:#263238"></path></g><g id="freepik--Top--inject-99"><path id="freepik--Chest--inject-99" d="M236.33,101.36a87,87,0,0,0-10.08,2.91l-15.53,4.16s-3.88,10.45-1.29,33.94c.46,4.2,2.28,18.63,2.23,27.38-.07,11.84-.37,24.65-.37,24.65s13.38,8.29,42.22,6.58c22.65-1.34,28.85-7.39,28.85-7.39s-1.22-32.1-.89-48.78c.55-27.8-3.54-35.39-8.36-39.3l-16-5.25Z" style="fill:#37474f"></path><g id="freepik--Head--inject-99"><path d="M259.61,57.11a8.63,8.63,0,0,0-5.07-3.68c-1.68-5.32-9.24-8.39-13.8-9.33-6.21-1.28-12.21.78-17.62,3.71a12.94,12.94,0,0,1-6.17,2c-1,0-2.08-.35-2.34-1.27a3.17,3.17,0,0,0-1.12,2.18,8.23,8.23,0,0,0,1.2,5.64,3.06,3.06,0,0,0-1.8,1.73,8.21,8.21,0,0,0,.34,7.64c2.85,4.85,8.39,4.28,13.19,5.23l14.3,2.83,12,2.37.5,6.11.95,8.73a5.67,5.67,0,0,0,2.89-3,48.33,48.33,0,0,0,3.16-12.76C261.79,63.44,261,59.13,259.61,57.11Z" style="fill:#263238"></path><path d="M261.41,82.79c-4.21,2.8-6.75-.48-6.75-.48l1.75,18c1.71,1.36,3.71,5.17-1.16,14.26-6.13-7.42-22.41-8.87-21.29-12.52l-.53-4.1a26.89,26.89,0,0,1-4,.15c-4.08-.09-7.8-2.41-9.69-7.62-2.28-6.29-3.42-18.75-2.72-27.48.27-3.37,1.2-4.41,3-5.62,4.47-3,18.45-5.34,23,0-.06,3.6,1.48,7.36,4.88,8.1.85,5.56,2,8.16,4.32,8.79,1.89.51,2.39-2.37,3.44-3.82a5.07,5.07,0,0,1,8.06.75A8.26,8.26,0,0,1,261.41,82.79Z" style="fill:#ffa8a7"></path><path d="M233.43,98c5.23-.74,9.79-2,12.7-3.73s5.09-6.27,5.43-10.54c.45,3.34-.21,9.45-4.57,12.54s-9.78,4-13.2,4.5Z" style="fill:#f28f8f"></path><path d="M240.08,64.19l-4.82-.45a2.54,2.54,0,0,0,2.25,2.7A2.35,2.35,0,0,0,240.08,64.19Z" style="fill:#263238"></path><path d="M222.34,65.37l-4,2.87a2.35,2.35,0,0,0,3.35.61A2.56,2.56,0,0,0,222.34,65.37Z" style="fill:#263238"></path><path d="M238.22,71.5a2,2,0,1,1-3.93.39,2,2,0,0,1,3.93-.39Z" style="fill:#263238"></path><path d="M224.15,73.18A2,2,0,1,1,222,71.41,2,2,0,0,1,224.15,73.18Z" style="fill:#263238"></path><path d="M230.48,68.12,232,80.71l-7-.76A29.51,29.51,0,0,1,230.48,68.12Z" style="fill:#f28f8f"></path><path d="M226.12,65.22a2.7,2.7,0,0,0-.47-1.15,2.74,2.74,0,0,0-.88-.78,2.31,2.31,0,0,0-.68-.25,1.43,1.43,0,0,0-.65,0c-.26.09-.09.46.1.52s.33.08.48.14a3.2,3.2,0,0,1,.37.19l.17.11,0,0a.27.27,0,0,1,.08.07.86.86,0,0,1,.14.13s0,0,0,0l.06.08a1.81,1.81,0,0,1,.29.65,3.64,3.64,0,0,1,.07.81.46.46,0,0,0,.24.35c.14.06.23.12.38.06s.21-.21.25-.37A1.67,1.67,0,0,0,226.12,65.22Z" style="fill:#f28f8f"></path><path d="M232.48,61.57c-.64.16-.95.94-1,1.52a4.85,4.85,0,0,0-.05,1,1.83,1.83,0,0,0,.09.52c0,.1.05.1.08.18a.91.91,0,0,0,.26.43.27.27,0,0,0,.31,0c.17-.14.13-.32.17-.52a2.53,2.53,0,0,0,0-.55,4.45,4.45,0,0,1,0-.73,3.14,3.14,0,0,1,.12-.61,1.34,1.34,0,0,1,.12-.3,1.79,1.79,0,0,0,.27-.64C232.82,61.76,232.66,61.53,232.48,61.57Z" style="fill:#f28f8f"></path><path d="M232.33,87.36a.92.92,0,0,0,.95.33,2.55,2.55,0,0,0,1.36-.86,4.17,4.17,0,0,1,1.25-1,3.85,3.85,0,0,1,1.27-.22,3.56,3.56,0,0,0,1.26-.22,1.22,1.22,0,0,0,.75-1,1.82,1.82,0,0,0-.92-1.4,4.61,4.61,0,0,0-4.69,0,3.3,3.3,0,0,0-1.16,1.13,3.51,3.51,0,0,0-.43,1.52A2.87,2.87,0,0,0,232.33,87.36Z" style="fill:#b16668"></path><path d="M239.16,84.16a1.19,1.19,0,0,1-.72,1.37c-.81.45-1.86.23-2.44.45a9.21,9.21,0,0,0-1.75,1.21l.12-1.25,3-1.91Z" style="fill:#b16668"></path><path d="M234.25,87.19a4,4,0,0,1,3.07-4.11,3.91,3.91,0,0,1,1-.09,1.75,1.75,0,0,1,.89,1.37,1.22,1.22,0,0,1-.75,1,3.56,3.56,0,0,1-1.26.22,3.85,3.85,0,0,0-1.27.22,4.17,4.17,0,0,0-1.25,1A4.49,4.49,0,0,1,234.25,87.19Z" style="fill:#f28f8f"></path></g><g id="freepik--Tie--inject-99"><path d="M255.25,114.59s-3.35-3.09-5.51-3.09c-2.49,0-4.82,4.57-5.47,6.17s-.54,1.58-2.73.18c-4.25-2.71-7.36-4.08-10-6.56-4.27-4-5.27-7-5.27-7S232.7,98,233.43,98l.53,4.1c5.25,4,14.39,5.52,15.59,6.62C250.42,109.49,254.14,112.67,255.25,114.59Z" style="fill:#455a64"></path><path d="M263.22,115.75c-.33.9-2.6-6.8-4-6.63-.68.07-2.15,2.71-4,5.47.54-2.15,1.84-4.68,1.91-7.51a35.55,35.55,0,0,0-.75-6.75L256,95.92c1.51-.28,3.33,2.39,4.83,5.06a19,19,0,0,1,2.23,5.86A27.57,27.57,0,0,1,263.22,115.75Z" style="fill:#455a64"></path></g></g><path d="M226,206.12a28.48,28.48,0,0,0-6.77-3.25,55.73,55.73,0,0,0-10.32-3.13,14,14,0,0,0-6.48.07,7,7,0,0,0-4.48,4.94,8.52,8.52,0,0,0,2.48,7.58c5.39,4.86,8.91,7.35,12.17,14.2,1.59,3.35,4.13,2.08,6.39,0s4.58-5.11,5.26-8.15C225.62,212.18,226,209.51,226,206.12Z" style="fill:#fff"></path><path d="M205.58,199.87a17,17,0,0,1,3.22.34,55.57,55.57,0,0,1,10.24,3.1,29.6,29.6,0,0,1,6.46,3.06c0,3.17-.37,5.8-1.74,11.92a16.59,16.59,0,0,1-5.11,7.89c-1.4,1.28-2.57,1.93-3.5,1.93s-1.57-.58-2.14-1.79c-2.86-6-5.93-8.72-10.19-12.49L200.74,212a8,8,0,0,1-2.34-7.13,6.53,6.53,0,0,1,4.14-4.58,11.29,11.29,0,0,1,3-.4m0-.48a11.7,11.7,0,0,0-3.17.42,7,7,0,0,0-4.48,4.94,8.52,8.52,0,0,0,2.48,7.58c5.39,4.86,8.91,7.35,12.17,14.2.71,1.49,1.6,2.06,2.57,2.06,1.22,0,2.57-.9,3.82-2.05,2.27-2.08,4.58-5.11,5.26-8.15,1.39-6.21,1.79-8.88,1.75-12.27a28.48,28.48,0,0,0-6.77-3.25,55.73,55.73,0,0,0-10.32-3.13,17.46,17.46,0,0,0-3.31-.35Z" style="fill:#e6e6e6"></path><path d="M220.2,225.09A19.5,19.5,0,0,0,209,211.88c-.21-.09-.18.3,0,.38a21.16,21.16,0,0,1,10.16,13.06C219.28,225.91,220.37,225.76,220.2,225.09Z" style="fill:#e0e0e0"></path><path d="M225.11,215.54a16.89,16.89,0,0,0-3.3-3.35,27.36,27.36,0,0,0-3.93-2.74,24,24,0,0,0-9.76-3c-.2,0-.12.35,0,.38a28.73,28.73,0,0,1,9.11,3.47,25.4,25.4,0,0,1,3.63,2.54c.59.49,1.15,1,1.69,1.55s1,1.14,1.53,1.67C224.49,216.41,225.5,216.12,225.11,215.54Z" style="fill:#e0e0e0"></path><path d="M226,204.83c.88,9.34-1.54,21.56-11.73,24.67-.63.17-1.26.32-1.89.47a17.78,17.78,0,0,0,6.57-3.84c5.61-5.48,6.53-13.84,7.05-21.3Z" style="fill:#263238"></path><path d="M207.06,207.8a15.91,15.91,0,0,1-1-5.73c0-1,.23-2.32,1.41-2.33a16.81,16.81,0,0,1,4.18.62c-2.64-6.89-6.47-8-7.7-9.93-1.8-2.82-10-20.88-11.66-24.5l20.14-28.69c7.34-11.31,1.68-28.08.1-28.37-8,.93-13.66,4.65-22.59,17.94-8.64,12.88-13.4,21.93-18.35,30-4.46,7.25-3.47,9.87,3.06,19.67,2.86,4.29,12,14.7,15.28,19.41,2.41,3.52,2.45,7.81,3.11,11.88a7.8,7.8,0,0,0,.33,1.43c.45,1.18,1.62,2,2.51,2.84s1.86,1.85,2.74,2.82a4.59,4.59,0,0,0,2.83,1.56c.41,0,.83,0,1.24.13a6.13,6.13,0,0,1,1.78.87,4.7,4.7,0,0,0,3.11.92c.29-.06.56-.19.85-.25a3,3,0,0,1,2.12.56,5.22,5.22,0,0,0,1.52.86,1.29,1.29,0,0,0,1.52-.82c.22-.66-.25-1.45-.56-2-1.37-2.46-3.91-4.12-5.11-6.64A21.41,21.41,0,0,1,207.06,207.8Z" style="fill:#ffa8a7"></path><path d="M213.74,107.62c-10,2.67-11.46,1.81-20.18,13.11s-19.88,30.64-22.74,35.79-3.71,7.83-1.11,12.94c3.13,6.17,12.35,16.92,12.35,16.92s3.07,1.74,8.93-2.12,6.45-7.63,6.45-7.63l-4.5-10.58s14.54-19.11,20.57-26.84S218.63,117.52,213.74,107.62Z" style="fill:#455a64"></path></g><path id="freepik--Lines--inject-99" d="M251.53,42.8a13.12,13.12,0,0,0,4.62,1.53c.89.15,1.78.28,2.68.38a3.72,3.72,0,0,0-.48.27,2.11,2.11,0,0,0-1.06,1.82c0,.86.84,1.26,1.54,1.55a12.32,12.32,0,0,0,1.55.53,1.69,1.69,0,0,0-.2.89c.12,1.65,2.37,1.91,3.63,2a15,15,0,0,0,4.95-.29,15.46,15.46,0,0,0,2.8-1,2.34,2.34,0,0,1,.24,2.15,4,4,0,0,1-2.14,1.89,2.1,2.1,0,0,0-.87-1.16,2.57,2.57,0,0,0-1.88-.28c-.53.11-1.34.43-1.42,1.06s.81,1.05,1.31,1.19a3.82,3.82,0,0,0,1.9,0c.2,0,.41-.12.61-.19a1.6,1.6,0,0,1,0,.31,1.24,1.24,0,0,1-1.16,1.2,1.57,1.57,0,0,1-.87-.22,1.15,1.15,0,0,0-.64-.84c-.22-.1-.41.15-.35.35a1.47,1.47,0,0,0,.58.85,1.26,1.26,0,0,1-.11.63,3,3,0,0,1-1.89,1.23c-.15.05-.14.38,0,.33.89-.29,1.94-.57,2.31-1.54a2,2,0,0,0,.1-.42,1.82,1.82,0,0,0,1.92-.4,2.08,2.08,0,0,0,.52-1.64A4.74,4.74,0,0,0,272.13,53a2.78,2.78,0,0,0-.14-2.6,12.87,12.87,0,0,0,1.31-.73,5.89,5.89,0,0,0,2-2,14.86,14.86,0,0,0,3-1.36,8.66,8.66,0,0,0,2.11-1.7c.58-.68.35-1.33-.14-2a8.32,8.32,0,0,0-1.95-1.84c.8-.78,1.44-1.78.93-2.83a4.82,4.82,0,0,0-1.62-1.74,9,9,0,0,0-2.19-1.1,22.4,22.4,0,0,0-4.87-1A30.64,30.64,0,0,0,255,36.59c-.17.07-.16.47,0,.38a30.87,30.87,0,0,1,4.15-1.44,30.49,30.49,0,0,1,9-1,29.9,29.9,0,0,1,4.53.5,12.09,12.09,0,0,1,4.06,1.4,5.73,5.73,0,0,1,1.62,1.4,1.55,1.55,0,0,1,0,2,4.84,4.84,0,0,1-.56.64,14,14,0,0,0-1.51-.83,32.91,32.91,0,0,0-4.91-1.83A30.46,30.46,0,0,0,261,36.43a22.53,22.53,0,0,0-5.35.91,19.6,19.6,0,0,0-2.55,1A11.29,11.29,0,0,0,251,39.47a2,2,0,0,0-.94,1.59C250.06,41.87,250.9,42.41,251.53,42.8Zm17.69,12a5.78,5.78,0,0,1-.65.18,3.33,3.33,0,0,1-1.77-.07,1.64,1.64,0,0,1-.81-.55c-.16-.35.45-.56.72-.64A2,2,0,0,1,269.22,54.77ZM275.56,47a3.37,3.37,0,0,0,.09-.34c.29-1.6-1.07-2.56-2.43-3l-.19,0a13.87,13.87,0,0,0,4.17-2c.18-.14.38-.29.58-.46a8.38,8.38,0,0,1,1.22,1,7,7,0,0,1,.76.87c.23.31.52.69.3,1.08a3.24,3.24,0,0,1-.87.86,8.63,8.63,0,0,1-1,.71A13.69,13.69,0,0,1,275.56,47ZM271.75,50a4.52,4.52,0,0,0-.68-.77,3.79,3.79,0,0,0-.38-.32c.81-.16,1.6-.35,2.39-.55.49-.12,1-.25,1.45-.4a5.16,5.16,0,0,1-.88.87A10.54,10.54,0,0,1,271.75,50Zm-10.94-1a15.83,15.83,0,0,0,2.54.42A25.91,25.91,0,0,0,270,49a2.53,2.53,0,0,1,.27.18,4.82,4.82,0,0,1,1,1c-.47.2-1,.38-1.44.53a13.89,13.89,0,0,1-4.43.67,14.72,14.72,0,0,1-2.19-.19,4.32,4.32,0,0,1-2.12-.74A1.14,1.14,0,0,1,260.81,49Zm4.05-.08a16.4,16.4,0,0,1-3.62-.41,3.5,3.5,0,0,1,1-.57,8.46,8.46,0,0,1,4.12-.26,9.52,9.52,0,0,1,2.89.9A26,26,0,0,1,264.86,48.92Zm-4.92-4.11a40,40,0,0,0,6.92-.05,34,34,0,0,0,5-.78c1.23.24,2.79.63,3.18,1.89a1.88,1.88,0,0,1-.13,1.36c-.43.15-.87.28-1.31.4-1.17.32-2.36.59-3.56.81a9.61,9.61,0,0,0-3.2-1.19,9.39,9.39,0,0,0-4.47.15,4,4,0,0,0-1.66,1h-.05a11,11,0,0,1-2-.75,1.35,1.35,0,0,1-.83-.82,1.19,1.19,0,0,1,.27-1A3.86,3.86,0,0,1,259.94,44.81Zm5.26-.49c-1.24.07-2.47,0-3.71,0l.95-.25a22.5,22.5,0,0,1,4.47-.56,22.13,22.13,0,0,1,3.55.22A36.35,36.35,0,0,1,265.2,44.32Zm-14.49-3.88a3.71,3.71,0,0,1,1.58-1.17c5.71-3,12.5-2.75,18.55-1a37.31,37.31,0,0,1,4.38,1.55,15.77,15.77,0,0,1,2.13,1.08,11.1,11.1,0,0,1-2.84,1.64,20.31,20.31,0,0,1-2.57.84,21.72,21.72,0,0,0-3.67-.42,22.17,22.17,0,0,0-5.14.41,22.77,22.77,0,0,0-2.43.62l-.7.22a37.32,37.32,0,0,1-4.21-.56,11.49,11.49,0,0,1-4.11-1.5C251.13,41.8,250.26,41.19,250.71,40.44Z" style="fill:#455a64"></path></g><g id="freepik--Symbols--inject-99"><g id="freepik--exclamation-marks--inject-99"><g id="freepik--exclamation-mark--inject-99"><path d="M303.91,86.77l3.43,1.45a1.27,1.27,0,0,0,1.62-.5l11.81-24a1.06,1.06,0,0,0-.63-1.45l-6.48-2.75a1,1,0,0,0-1.46.5l-9.08,25.33A1.24,1.24,0,0,0,303.91,86.77Z" style="fill:#BA68C8"></path><path d="M300.63,99.29a4,4,0,1,0-2.15-5.3A4,4,0,0,0,300.63,99.29Z" style="fill:#BA68C8"></path></g><g id="freepik--exclamation-mark--inject-99"><path d="M319.31,101.69l2.51,2a1.09,1.09,0,0,0,1.47,0l15.6-17.24a.94.94,0,0,0-.18-1.36L334,81.25a.91.91,0,0,0-1.34.07l-13.62,19A1.08,1.08,0,0,0,319.31,101.69Z" style="fill:#BA68C8"></path><path d="M313.58,111.36a3.51,3.51,0,1,0-.53-4.94A3.49,3.49,0,0,0,313.58,111.36Z" style="fill:#BA68C8"></path></g></g></g><g id="freepik--speech-bubble--inject-99"><g id="freepik--speech-bubble--inject-99"><g id="freepik--speech-bubble--inject-99"><path d="M165.78,122.28a23.74,23.74,0,0,0,9.46-14.68l.37-2.69a23.75,23.75,0,0,0-46.71-7.73l-.5,2.67a23.75,23.75,0,0,0,37.38,22.43Z" style="fill:#fff"></path><path d="M161.42,127.45A25.82,25.82,0,0,0,177.11,98.1L183,92.65a1.5,1.5,0,0,0-1-2.6l-8,.07a25.78,25.78,0,1,0-12.52,37.33Zm-31.61-15.18a23.66,23.66,0,0,1,0-17.46l1.13-2.47A23.75,23.75,0,0,1,174.4,111.1l-1,2.52a23.76,23.76,0,0,1-43.58-1.35Z" style="fill:#455a64"></path><path d="M135.39,120.58a23.66,23.66,0,0,1-7.21-15.9l0-2.72a23.75,23.75,0,0,1,47.34-.81l.12,2.72a23.75,23.75,0,0,1-40.27,16.71Z" style="fill:#fff"></path></g><path d="M161.3,114.35a11.45,11.45,0,0,1-6.66,3v4.28H150V117.5a24.06,24.06,0,0,1-5.48-1,15.94,15.94,0,0,1-4.28-2l2.51-5.63a17,17,0,0,0,8.91,2.66q4.4,0,4.4-2.2a1.81,1.81,0,0,0-1.26-1.71,22.14,22.14,0,0,0-4-1.18,39,39,0,0,1-5.09-1.41,8.42,8.42,0,0,1-3.51-2.41,6.52,6.52,0,0,1-1.47-4.48,7.76,7.76,0,0,1,2.39-5.69A11.45,11.45,0,0,1,150,89.6V85.36h4.63v4.16a23,23,0,0,1,4.22.77,15.6,15.6,0,0,1,3.61,1.51l-2.35,5.67a15.71,15.71,0,0,0-7.49-2.08,6.3,6.3,0,0,0-3.32.67,2,2,0,0,0-1,1.76,1.74,1.74,0,0,0,1.24,1.62,22.7,22.7,0,0,0,4,1.12,36.27,36.27,0,0,1,5.11,1.41,8.84,8.84,0,0,1,3.51,2.39,6.34,6.34,0,0,1,1.49,4.45A7.61,7.61,0,0,1,161.3,114.35Z" style="fill:#BA68C8"></path><polygon points="168.68 121.29 133.65 87.43 135.22 85.69 170.16 119.45 168.68 121.29" style="fill:#455a64"></polygon></g></g></svg>
